<?xml version="1.0" standalone="no"?>
<!DOCTYPE svg PUBLIC "-//W3C//DTD SVG 1.1//EN" "http://www.w3.org/Graphics/SVG/1.1/DTD/svg11.dtd" >
<svg>
<metadata>
Created by FontForge 20110222 at Tue Jan 27 21:26:03 2015
 By deploy user
Copyright (c) 2011, Joe Prince, Admix Designs (http://www.admixdesigns.com/) with Reserved Font Name Varela Round.
</metadata>
<defs>
<font id="VarelaRound" horiz-adv-x="628" >
  <font-face 
    font-family="Varela Round"
    font-weight="400"
    font-stretch="normal"
    units-per-em="1000"
    panose-1="2 0 0 0 0 0 0 0 0 0"
    ascent="800"
    descent="-200"
    x-height="510"
    cap-height="703"
    bbox="-140 -286 988 918"
    underline-thickness="50"
    underline-position="-50"
    unicode-range="U+0020-FB06"
  />
<missing-glyph horiz-adv-x="514" 
d="M441 698q22 0 37.5 -15.5t15.5 -37.5v-593q0 -22 -15.5 -37t-37.5 -15h-369q-22 0 -37 15t-15 37v593q0 22 15 37.5t37 15.5h369zM444 96v506l-158 -253zM413 648h-313l157 -251zM70 96l157 253l-157 253v-506zM100 50h313l-156 252z" />
    <glyph glyph-name="f_f" unicode="ff" horiz-adv-x="774" 
d="M684 653q-41 0 -61.5 -19t-20.5 -69v-55h125q17 0 28 -11t11 -28t-11 -28t-28 -11h-125v-392q0 -19 -13.5 -32t-32.5 -13t-32 13t-13 32v392h-303v-392q0 -19 -13.5 -32t-32.5 -13t-32 13t-13 32v392h-59q-16 0 -27.5 11t-11.5 28t11.5 28t27.5 11h59v58q0 87 44.5 129.5
t105.5 42.5q47 0 87 -20q23 -12 23 -35q0 -15 -11 -26.5t-26 -11.5q-8 0 -24 3t-26 3q-41 0 -61.5 -19t-20.5 -69v-55h303v58q0 87 44.5 129.5t105.5 42.5q47 0 87 -20q23 -12 23 -35q0 -15 -11 -26.5t-26 -11.5q-8 0 -24 3t-26 3z" />
    <glyph glyph-name="fi" unicode="fi" horiz-adv-x="641" 
d="M208 510h307q19 -2 31 -14.5t12 -31.5v-424q0 -19 -13.5 -32t-32.5 -13t-32 13t-13 32v392h-259v-392q0 -19 -13.5 -32t-32.5 -13t-32 13t-13 32v392h-59q-16 0 -27.5 11t-11.5 28t11.5 28t27.5 11h59v58q0 87 44.5 129.5t105.5 42.5q47 0 87 -20q23 -12 23 -35
q0 -15 -11 -26.5t-26 -11.5q-8 0 -24 3t-26 3q-41 0 -61.5 -19t-20.5 -69v-55zM567 669v-4q0 -21 -15 -36t-36 -15h-6q-21 0 -36 15t-15 36v4q0 21 15 36t36 15h6q21 0 36 -15t15 -36z" />
    <glyph glyph-name="fl" unicode="fl" horiz-adv-x="644" 
d="M290 653q-41 0 -61.5 -19t-20.5 -69v-55h125q17 0 28 -11t11 -28t-11 -28t-28 -11h-125v-392q0 -19 -13.5 -32t-32.5 -13t-32 13t-13 32v392h-59q-16 0 -27.5 11t-11.5 28t11.5 28t27.5 11h59v58q0 87 44.5 129.5t105.5 42.5q47 0 87 -20q23 -12 23 -35q0 -15 -11 -26.5
t-26 -11.5q-8 0 -24 3t-26 3zM511 735q19 0 32.5 -13.5t13.5 -32.5v-649q0 -19 -13.5 -32t-32.5 -13t-32 13t-13 32v649q0 19 13 32.5t32 13.5z" />
    <glyph glyph-name="f_f_i" unicode="ffi" horiz-adv-x="1035" 
d="M906 510q20 0 33 -13t13 -33v-424q0 -19 -13.5 -32t-32.5 -13t-32 13t-13 32v392h-259v-392q0 -19 -13.5 -32t-32.5 -13t-32 13t-13 32v392h-303v-392q0 -19 -13.5 -32t-32.5 -13t-32 13t-13 32v392h-59q-16 0 -27.5 11t-11.5 28t11.5 28t27.5 11h59v58q0 87 44.5 129.5
t105.5 42.5q47 0 87 -20q23 -12 23 -35q0 -15 -11 -26.5t-26 -11.5q-8 0 -24 3t-26 3q-41 0 -61.5 -19t-20.5 -69v-55h303v58q0 87 44.5 129.5t105.5 42.5q47 0 87 -20q23 -12 23 -35q0 -15 -11 -26.5t-26 -11.5q-8 0 -24 3t-26 3q-41 0 -61.5 -19t-20.5 -69v-55h304z
M961 669v-4q0 -21 -15 -36t-36 -15h-6q-21 0 -36 15t-15 36v4q0 21 15 36t36 15h6q21 0 36 -15t15 -36z" />
    <glyph glyph-name="f_f_l" unicode="ffl" horiz-adv-x="1038" 
d="M905 735q19 0 32.5 -13.5t13.5 -32.5v-649q0 -19 -13.5 -32t-32.5 -13t-32 13t-13 32v649q0 19 13 32.5t32 13.5zM684 653q-41 0 -61.5 -19t-20.5 -69v-55h125q17 0 28 -11t11 -28t-11 -28t-28 -11h-125v-392q0 -19 -13.5 -32t-32.5 -13t-32 13t-13 32v392h-303v-392
q0 -19 -13.5 -32t-32.5 -13t-32 13t-13 32v392h-59q-16 0 -27.5 11t-11.5 28t11.5 28t27.5 11h59v58q0 87 44.5 129.5t105.5 42.5q47 0 87 -20q23 -12 23 -35q0 -15 -11 -26.5t-26 -11.5q-8 0 -24 3t-26 3q-41 0 -61.5 -19t-20.5 -69v-55h303v58q0 87 44.5 129.5t105.5 42.5
q47 0 87 -20q23 -12 23 -35q0 -15 -11 -26.5t-26 -11.5q-8 0 -24 3t-26 3z" />
    <glyph glyph-name="f_j" unicode="fj" horiz-adv-x="641" 
d="M290 653q-41 0 -61.5 -19t-20.5 -69v-55h307q19 -2 31 -14.5t12 -31.5v-567q0 -62 -31.5 -99.5t-99.5 -37.5q-36 0 -63 9q-26 8 -26 36q0 15 11 26.5t27 11.5q4 0 14 -1.5t16 -1.5q31 0 46 11t15 48v533h-259v-392q0 -19 -13.5 -32t-32.5 -13t-32 13t-13 32v392h-59
q-16 0 -27.5 11t-11.5 28t11.5 28t27.5 11h59v58q0 87 44.5 129.5t105.5 42.5q47 0 87 -20q23 -12 23 -35q0 -15 -11 -26.5t-26 -11.5q-8 0 -24 3t-26 3zM567 669v-4q0 -21 -15 -36t-36 -15h-6q-21 0 -36 15t-15 36v4q0 21 15 36t36 15h6q21 0 36 -15t15 -36z" />
    <glyph glyph-name=".notdef" horiz-adv-x="514" 
d="M441 698q22 0 37.5 -15.5t15.5 -37.5v-593q0 -22 -15.5 -37t-37.5 -15h-369q-22 0 -37 15t-15 37v593q0 22 15 37.5t37 15.5h369zM444 96v506l-158 -253zM413 648h-313l157 -251zM70 96l157 253l-157 253v-506zM100 50h313l-156 252z" />
    <glyph glyph-name=".null" horiz-adv-x="0" 
 />
    <glyph glyph-name="nonmarkingreturn" horiz-adv-x="333" 
 />
    <glyph glyph-name="space" unicode=" " horiz-adv-x="260" 
 />
    <glyph glyph-name="exclam" unicode="!" horiz-adv-x="281" 
d="M141 193q-32 0 -34 29l-18 330v99q0 22 15 37t37 15t36.5 -15t14.5 -37v-99l-18 -330q-2 -29 -33 -29zM141 115q25 0 42.5 -17.5t17.5 -41.5q0 -25 -17.5 -42.5t-42.5 -17.5q-24 0 -41.5 17.5t-17.5 42.5q0 24 17.5 41.5t41.5 17.5z" />
    <glyph glyph-name="quotedbl" unicode="&#x22;" horiz-adv-x="411" 
d="M60 697q1 21 16 35.5t35 14.5t35 -14.5t16 -35.5q3 -58 -22 -180q-6 -25 -29 -25t-29 25q-25 122 -22 180zM249 697q1 21 16 35.5t35 14.5t35 -14.5t16 -35.5q3 -58 -22 -180q-6 -25 -29 -25t-29 25q-25 122 -22 180z" />
    <glyph glyph-name="numbersign" unicode="#" horiz-adv-x="612" 
d="M540 474q14 0 24.5 -10.5t10.5 -24.5t-10.5 -24.5t-24.5 -10.5h-88l-24 -152h1h76q14 0 24.5 -10.5t10.5 -24.5t-10.5 -24.5t-24.5 -10.5h-88l-25 -158q-2 -12 -12 -20.5t-23 -8.5q-14 0 -24.5 10t-10.5 25q0 4 24 152h-127l-25 -158q-2 -12 -12 -20.5t-23 -8.5
q-14 0 -24.5 10t-10.5 25q0 4 24 152h-77q-14 0 -24.5 10.5t-10.5 24.5t10.5 24.5t24.5 10.5h88l24 152h-77q-14 0 -24.5 10.5t-10.5 24.5t10.5 24.5t24.5 10.5h88l25 158q2 12 11.5 20t23.5 8q16 0 25.5 -10t9.5 -25q0 -7 -24 -151h127l25 158q2 12 11.5 20t23.5 8
q16 0 25.5 -10t9.5 -25q0 -7 -24 -151h77zM357 252l24 152h-127l-24 -152h127z" />
    <glyph glyph-name="dollar" unicode="$" horiz-adv-x="612" 
d="M334 387q54 -13 86.5 -24t71.5 -33.5t58 -58.5t19 -86q0 -81 -64 -135t-171 -60v-78q0 -10 -6.5 -16t-16.5 -6q-22 0 -22 22v78q-115 5 -214 48q-28 11 -28 39q0 17 11.5 29t29.5 12q10 0 19 -4q81 -36 182 -39v229q-43 11 -69 19.5t-61.5 25.5t-55.5 36t-34.5 49.5
t-14.5 68.5q0 83 62 140.5t173 63.5v78q0 10 6 16.5t16 6.5t16.5 -6.5t6.5 -16.5v-77q96 -3 178 -33q28 -10 28 -40q0 -16 -11 -28.5t-29 -12.5q-6 0 -16 4q-73 26 -150 27v-238zM144 510q0 -46 37 -70t108 -42v225q-65 -6 -105 -35.5t-40 -77.5zM334 76q145 10 145 115
q0 39 -36.5 61t-108.5 41v-217z" />
    <glyph glyph-name="percent" unicode="%" horiz-adv-x="814" 
d="M204 715q77 0 119 -50.5t42 -128.5t-42 -128.5t-119 -50.5t-119 50.5t-42 128.5t42 128.5t119 50.5zM204 422q43 0 67 32t24 82t-24 82t-67 32t-67 -32t-24 -82t24 -82t67 -32zM610 340q77 0 119 -50.5t42 -128.5t-42 -128.5t-119 -50.5t-119 50.5t-42 128.5t42 128.5
t119 50.5zM610 47q43 0 67 32t24 82t-24 82t-67 32t-67 -32t-24 -82t24 -82t67 -32zM645 677q0 -11 -7 -22l-404 -647q-11 -18 -30 -18q-13 0 -23 9.5t-10 23.5q0 9 5 17l407 651q10 16 28 16q34 0 34 -30z" />
    <glyph glyph-name="ampersand" unicode="&#x26;" horiz-adv-x="732" 
d="M577 129l67 -64q16 -14 16 -32q0 -17 -11 -29t-30 -12q-18 0 -31 12l-67 64q-92 -78 -205 -78q-123 0 -184 61t-61 145q0 68 35.5 116.5t77.5 75.5q-61 73 -61 145q0 73 51 124t136 51q67 0 133 -44q18 -10 18 -30q0 -14 -10 -24.5t-25 -10.5q-8 0 -18 5q-48 26 -94 26
q-50 0 -78.5 -27.5t-28.5 -64.5q0 -42 19.5 -70t80.5 -85l209 -197q14 20 33 61q11 25 39 25q18 0 30 -11.5t12 -29.5q0 -10 -5 -20q-20 -43 -48 -82zM462 123l-223 209q-82 -55 -82 -139q0 -55 43.5 -90.5t107.5 -35.5q85 0 154 56z" />
    <glyph glyph-name="quotesingle" unicode="'" horiz-adv-x="238" 
d="M135 743q23 0 39.5 -16.5t16.5 -39.5v-6v-53q0 -96 -82 -146q-7 -5 -17 -5q-12 0 -20.5 9t-8.5 21q0 16 15 25q25 15 38 35t13 58h-4q-23 0 -39.5 16.5t-16.5 39.5v6q0 23 16.5 39.5t39.5 16.5h10z" />
    <glyph glyph-name="parenleft" unicode="(" horiz-adv-x="312" 
d="M265 -115q0 -17 -12 -28t-28 -11q-18 0 -33 18q-70 83 -105.5 198.5t-35.5 244.5t35.5 244.5t105.5 198.5q15 18 33 18q16 0 28 -11t12 -28q0 -11 -6 -22q-117 -195 -117 -400t117 -400q6 -11 6 -22z" />
    <glyph glyph-name="parenright" unicode=")" horiz-adv-x="312" 
d="M48 -115q0 11 6 22q117 195 117 400t-117 400q-6 11 -6 22q0 17 12 28t28 11q18 0 33 -18q70 -83 105.5 -198.5t35.5 -244.5t-35.5 -244.5t-105.5 -198.5q-15 -18 -33 -18q-16 0 -28 11t-12 28z" />
    <glyph glyph-name="asterisk" unicode="*" horiz-adv-x="417" 
d="M336 504q10 -6 13 -18t-3 -22t-17.5 -14t-22.5 2q-4 2 -84 67q16 -102 16 -106q0 -12 -9 -20.5t-21 -8.5t-21 8.5t-9 20.5q0 4 16 106q-80 -65 -84 -67q-12 -6 -23 -2t-17 14q-6 9 -3.5 21.5t13.5 18.5q4 2 100 39q-96 37 -100 39q-11 6 -13.5 19t3.5 22q6 10 17 13.5
t23 -2.5q4 -2 84 -67q-16 102 -16 106q0 12 9 20.5t21 8.5t21 -8.5t9 -20.5q0 -4 -16 -106q80 65 84 67q11 6 22.5 2.5t17.5 -13.5t3 -22t-13 -19q-4 -2 -100 -39q96 -37 100 -39z" />
    <glyph glyph-name="plus" unicode="+" horiz-adv-x="562" 
d="M483 384q17 0 28 -11t11 -28q0 -16 -11 -27t-28 -11h-163v-164q0 -17 -11 -28t-28 -11t-28 11t-11 28v164h-164q-16 0 -27 10.5t-11 27.5t11 28t27 11h164v164q0 16 11 27.5t28 11.5t28 -11.5t11 -27.5v-164h163z" />
    <glyph glyph-name="comma" unicode="," horiz-adv-x="260" 
d="M135 115q23 0 39.5 -16.5t16.5 -39.5v-6v-53q0 -96 -82 -146q-7 -5 -17 -5q-12 0 -20.5 9t-8.5 21q0 16 15 25q25 15 38 35t13 58h-4q-23 0 -39.5 16.5t-16.5 39.5v6q0 23 16.5 39.5t39.5 16.5h10z" />
    <glyph glyph-name="hyphen" unicode="-" horiz-adv-x="408" 
d="M298 321q17 0 29 -12t12 -29t-12 -28.5t-29 -11.5h-189q-17 0 -28.5 11.5t-11.5 28.5t11.5 29t28.5 12h189z" />
    <glyph glyph-name="period" unicode="." horiz-adv-x="260" 
d="M135 115q23 0 39.5 -16.5t16.5 -39.5v-6q0 -23 -16.5 -39.5t-39.5 -16.5h-10q-23 0 -39.5 16.5t-16.5 39.5v6q0 23 16.5 39.5t39.5 16.5h10z" />
    <glyph glyph-name="slash" unicode="/" horiz-adv-x="443" 
d="M355 764q18 0 29.5 -12t11.5 -29q0 -6 -3 -15l-265 -775q-9 -28 -39 -28q-18 0 -29.5 12t-11.5 29q0 6 3 15l265 775q9 28 39 28z" />
    <glyph glyph-name="zero" unicode="0" 
d="M314 708q131 0 201 -97t70 -262t-70 -262t-201 -97q-132 0 -201.5 97t-69.5 262t69.5 262t201.5 97zM314 74q87 0 133.5 73t46.5 202q0 128 -46.5 201t-133.5 73t-133.5 -73t-46.5 -201q0 -129 46.5 -202t133.5 -73z" />
    <glyph glyph-name="one" unicode="1" 
d="M486 85q18 0 30.5 -12.5t12.5 -30.5t-12.5 -30t-30.5 -12h-309q-18 0 -30 12t-12 30t12 30.5t30 12.5h119v507l-102 -50q-14 -6 -23 -6q-19 0 -31 12t-12 31q0 28 26 41l136 71q14 7 28 7h21q19 0 33.5 -14t14.5 -34v-565h99z" />
    <glyph glyph-name="two" unicode="2" 
d="M504 85q18 0 30.5 -12.5t12.5 -30.5t-12.5 -30t-30.5 -12h-386q-23 0 -38 14.5t-15 37.5q0 49 29.5 94.5t74 78.5t96.5 68t96.5 64t74 66t29.5 75q0 124 -158 124q-90 0 -171 -36q-10 -5 -19 -5q-16 0 -27 11t-11 28q0 25 22 37q102 51 222 51q98 0 164 -56.5t66 -146.5
q0 -49 -26 -94.5t-65 -80t-87.5 -69t-91.5 -61.5t-79 -57.5t-48 -57.5h348z" />
    <glyph glyph-name="three" unicode="3" 
d="M407 361q25 -6 47 -16.5t46 -30.5t38.5 -54t14.5 -77q0 -92 -72.5 -142.5t-186.5 -50.5q-111 0 -209 40q-26 10 -26 38q0 16 11.5 29t28.5 13q9 0 19 -4q72 -29 159 -29q35 0 66 5t59 17t44 35t16 54q0 126 -221 126h-16q-17 0 -29.5 12.5t-12.5 29.5t12.5 29.5
t29.5 12.5h6q206 0 206 121q0 48 -40 76t-118 28q-84 0 -155 -33q-10 -4 -18 -4q-15 0 -26 10.5t-11 26.5q0 23 20 34q96 51 198 51q115 0 178 -47t63 -133q0 -122 -121 -167z" />
    <glyph glyph-name="four" unicode="4" 
d="M555 257q17 0 29 -12t12 -29t-12 -28.5t-29 -11.5h-76v-136q0 -19 -13.5 -32t-32.5 -13t-32 13t-13 32v136h-305q-24 0 -41 16.5t-17 40.5v9q0 21 12 36l314 401q19 24 50 24h20q26 0 42 -16.5t16 -41.5v-388h76zM122 257h266v343z" />
    <glyph glyph-name="five" unicode="5" 
d="M338 442q110 0 171.5 -62.5t61.5 -163.5t-69 -163.5t-205 -62.5q-122 0 -213 58q-20 14 -20 36q0 18 11 30.5t29 12.5q11 0 21 -5q79 -42 160 -42q95 0 145 32t50 109q0 62 -41.5 98t-113.5 36q-83 0 -154 -43q-22 -12 -35 -12q-28 0 -47 16t-19 42q0 12 2 24l45 266
q3 23 17.5 36.5t35.5 13.5h321q18 0 30.5 -12.5t12.5 -30.5t-12.5 -30t-30.5 -12h-290l-32 -212q76 41 169 41z" />
    <glyph glyph-name="six" unicode="6" 
d="M351 452q103 0 166 -64t63 -171q0 -97 -67.5 -162t-179.5 -65q-274 0 -274 358q0 63 15 123t47 115t91 88.5t137 33.5q95 0 177 -43q21 -11 21 -36q0 -16 -11.5 -28.5t-29.5 -12.5q-10 0 -17 3q-62 29 -133 29q-49 0 -87 -18.5t-60 -45.5t-36.5 -63.5t-19.5 -66.5t-7 -62
q69 88 205 88zM334 75q69 0 112 42t43 102q0 68 -38 109t-111 41q-130 0 -189 -110q27 -184 183 -184z" />
    <glyph glyph-name="seven" unicode="7" 
d="M567 645q0 -22 -10 -44l-284 -581q-13 -25 -43 -25q-20 0 -32.5 12.5t-12.5 32.5q0 12 6 24l275 547h-363q-18 0 -30.5 12.5t-12.5 30.5t12.5 31t30.5 13h408q24 0 40 -15t16 -38z" />
    <glyph glyph-name="eight" unicode="8" 
d="M548 526q0 -58 -32.5 -96.5t-83.5 -55.5q149 -50 149 -189q0 -36 -14.5 -68.5t-44 -62t-83.5 -47t-125 -17.5t-125 17.5t-83.5 47t-44 62t-14.5 68.5q0 139 149 189q-51 17 -83.5 55.5t-32.5 96.5q0 70 57.5 126t176.5 56t176.5 -56t57.5 -126zM314 70q90 0 133 40.5
t43 84.5q0 64 -51 99.5t-125 35.5t-125 -35.5t-51 -99.5q0 -44 43 -84.5t133 -40.5zM171 520q0 -42 34.5 -75t108.5 -33t108.5 33t34.5 75q0 47 -36.5 77.5t-106.5 30.5t-106.5 -30.5t-36.5 -77.5z" />
    <glyph glyph-name="nine" unicode="9" 
d="M277 246q-103 0 -166 64t-63 171q0 97 67.5 162t179.5 65q274 0 274 -358q0 -63 -15 -123t-47 -115t-91 -88.5t-137 -33.5q-95 0 -177 43q-21 11 -21 36q0 16 11.5 28.5t29.5 12.5q10 0 17 -3q62 -29 133 -29q49 0 87 18.5t60 45.5t36.5 63.5t19.5 66.5t7 62
q-69 -88 -205 -88zM294 623q-69 0 -112 -42t-43 -102q0 -68 38 -109t111 -41q130 0 189 110q-27 184 -183 184z" />
    <glyph glyph-name="colon" unicode=":" horiz-adv-x="260" 
d="M135 115q23 0 39.5 -16.5t16.5 -39.5v-6q0 -23 -16.5 -39.5t-39.5 -16.5h-10q-23 0 -39.5 16.5t-16.5 39.5v6q0 23 16.5 39.5t39.5 16.5h10zM135 513q23 0 39.5 -16.5t16.5 -39.5v-6q0 -23 -16.5 -39.5t-39.5 -16.5h-10q-23 0 -39.5 16.5t-16.5 39.5v6q0 23 16.5 39.5
t39.5 16.5h10z" />
    <glyph glyph-name="semicolon" unicode=";" horiz-adv-x="260" 
d="M135 115q23 0 39.5 -16.5t16.5 -39.5v-6v-53q0 -96 -82 -146q-7 -5 -17 -5q-12 0 -20.5 9t-8.5 21q0 16 15 25q25 15 38 35t13 58h-4q-23 0 -39.5 16.5t-16.5 39.5v6q0 23 16.5 39.5t39.5 16.5h10zM135 513q23 0 39.5 -16.5t16.5 -39.5v-6q0 -23 -16.5 -39.5t-39.5 -16.5
h-10q-23 0 -39.5 16.5t-16.5 39.5v6q0 23 16.5 39.5t39.5 16.5h10z" />
    <glyph glyph-name="less" unicode="&#x3c;" horiz-adv-x="580" 
d="M486 58q-8 0 -16 3l-399 179q-36 16 -36 52v8q0 36 36 52l399 179q8 3 16 3q17 0 28.5 -11.5t11.5 -28.5q0 -26 -27 -38l-360 -160l360 -160q27 -12 27 -38q0 -17 -11.5 -28.5t-28.5 -11.5z" />
    <glyph glyph-name="equal" unicode="=" horiz-adv-x="712" 
d="M112 404q-16 0 -27.5 11t-11.5 28t11.5 28t27.5 11h488q16 0 27.5 -11t11.5 -28t-11.5 -28t-27.5 -11h-488zM600 258q16 0 27.5 -11t11.5 -28t-11.5 -28t-27.5 -11h-488q-16 0 -27.5 11t-11.5 28t11.5 28t27.5 11h488z" />
    <glyph glyph-name="greater" unicode="&#x3e;" horiz-adv-x="580" 
d="M94 58q-17 0 -28.5 11.5t-11.5 28.5q0 26 27 38l360 160l-360 160q-27 12 -27 38q0 17 11.5 28.5t28.5 11.5q8 0 16 -3l399 -179q36 -16 36 -52v-8q0 -36 -36 -52l-399 -179q-8 -3 -16 -3z" />
    <glyph glyph-name="question" unicode="?" horiz-adv-x="497" 
d="M227 708q102 0 163.5 -51t61.5 -138q0 -44 -19.5 -79t-47 -57.5t-54.5 -44t-46.5 -50t-19.5 -63.5q0 -16 -13 -27.5t-31 -11.5q-19 0 -31.5 11.5t-12.5 27.5q0 47 19 85t46.5 62.5t54.5 45.5t46 45t19 51q0 109 -143 109q-75 0 -128 -33q-12 -8 -25 -8q-16 0 -28 12
t-12 28q0 23 25 38q77 48 176 48zM219 115q25 0 42.5 -17.5t17.5 -41.5q0 -25 -17.5 -42.5t-42.5 -17.5q-24 0 -41.5 17.5t-17.5 42.5q0 24 17.5 41.5t41.5 17.5z" />
    <glyph glyph-name="at" unicode="@" horiz-adv-x="898" 
d="M473 688q158 -1 269.5 -98t111.5 -248q0 -63 -17.5 -116.5t-61 -92t-107.5 -38.5q-50 0 -78 22t-34 52q-62 -75 -165 -75q-80 0 -125 49t-45 127q0 111 71 177t166 66q75 0 128 -51l3 17q2 13 12.5 22t24.5 9q15 0 25.5 -10.5t10.5 -26.5q0 -5 -1 -11l-33 -190
q-7 -37 -7 -65t12.5 -46.5t37.5 -18.5q62 0 95.5 54t33.5 146t-49.5 160.5t-122.5 100.5t-155 32q-151 0 -261.5 -110.5t-110.5 -262.5q0 -74 33.5 -139.5t103 -109.5t162.5 -44q43 0 82.5 7t64 15.5t62.5 23.5q6 2 11 2q11 0 18 -7t7 -17q0 -16 -14 -23q-106 -53 -231 -53
q-155 0 -253 102t-98 243q0 113 57.5 211t155.5 156.5t211 58.5zM559 303l16 93q-44 46 -113 46q-67 0 -115.5 -43t-48.5 -119q0 -58 32 -87.5t83 -29.5q122 0 146 140z" />
    <glyph glyph-name="A" unicode="A" horiz-adv-x="697" 
d="M667 60q5 -12 5 -20q0 -19 -12.5 -32t-32.5 -13q-31 0 -43 28l-65 156h-340l-65 -156q-12 -28 -43 -28q-20 0 -32.5 13t-12.5 32q0 8 5 20l255 602q18 41 58 41h10q40 0 58 -41zM214 262h270l-135 325z" />
    <glyph glyph-name="B" unicode="B" horiz-adv-x="693" 
d="M504 363q60 -19 98.5 -61t38.5 -106q0 -196 -257 -196h-242q-19 0 -32 13t-13 32v607q0 19 13 32.5t32 13.5h236q107 0 165.5 -49t58.5 -132q0 -110 -98 -154zM515 510q0 47 -38.5 75t-105.5 28h-183v-217h166q89 0 125 30t36 84zM375 85q97 0 137.5 30t40.5 85
q0 114 -177 114h-188v-229h187z" />
    <glyph glyph-name="C" unicode="C" horiz-adv-x="698" 
d="M616 128q18 0 29.5 -12t10.5 -28q-1 -25 -22 -36q-110 -62 -228 -62q-153 0 -251.5 97.5t-98.5 261.5t98.5 261.5t251.5 97.5q118 0 228 -62q21 -11 22 -36q1 -16 -10.5 -28t-29.5 -12q-10 0 -18 4q-89 47 -183 47q-128 0 -198 -76t-70 -196t70 -196t198 -76q94 0 183 47
q8 4 18 4z" />
    <glyph glyph-name="D" unicode="D" horiz-adv-x="750" 
d="M343 698q86 0 155.5 -30.5t111.5 -81t64 -111.5t22 -126q0 -51 -13.5 -100.5t-42 -94.5t-69.5 -79.5t-100 -54.5t-128 -20h-201q-19 0 -32 13t-13 32v607q0 19 13 32.5t32 13.5h201zM332 85q124 0 199 73t75 191t-75 191t-199 73h-144v-528h144z" />
    <glyph glyph-name="E" unicode="E" horiz-adv-x="638" 
d="M543 85q18 0 30.5 -12.5t12.5 -30.5t-12.5 -30t-30.5 -12h-401q-19 0 -32 13t-13 32v607q0 19 13 32.5t32 13.5h401q18 0 30.5 -12.5t12.5 -30.5t-12.5 -30t-30.5 -12h-355v-221h319q18 0 30.5 -12.5t12.5 -30.5t-12.5 -30t-30.5 -12h-319v-222h355z" />
    <glyph glyph-name="F" unicode="F" horiz-adv-x="610" 
d="M531 613h-343v-221h308q18 0 30.5 -12.5t12.5 -30.5t-12.5 -30t-30.5 -12h-308v-267q0 -19 -13.5 -32t-32.5 -13t-32 13t-13 32v612q0 19 13 32.5t32 13.5h389q18 0 30.5 -12.5t12.5 -30.5t-12.5 -30t-30.5 -12z" />
    <glyph glyph-name="G" unicode="G" horiz-adv-x="744" 
d="M625 383q20 0 34 -14t14 -34v-227q0 -44 -38 -62q-112 -56 -229 -56q-157 0 -254 100t-97 258q0 160 100 260t248 100q136 0 249 -72q20 -11 20 -36q0 -17 -11.5 -29t-30.5 -12q-11 0 -21 5q-94 56 -196 56q-117 0 -192 -72t-75 -200q0 -119 73 -195.5t199 -76.5
q94 0 175 44v181h-165q-17 0 -29 12t-12 29t12 29t29 12h197z" />
    <glyph glyph-name="H" unicode="H" horiz-adv-x="755" 
d="M612 703q19 0 32.5 -13.5t13.5 -32.5v-617q0 -19 -13.5 -32t-32.5 -13t-32 13t-13 32v266h-379v-266q0 -19 -13.5 -32t-32.5 -13t-32 13t-13 32v617q0 19 13 32.5t32 13.5t32.5 -13.5t13.5 -32.5v-266h379v266q0 19 13 32.5t32 13.5z" />
    <glyph glyph-name="I" unicode="I" horiz-adv-x="285" 
d="M142 703q19 0 32.5 -13.5t13.5 -32.5v-617q0 -19 -13.5 -32t-32.5 -13t-32 13t-13 32v617q0 19 13 32.5t32 13.5z" />
    <glyph glyph-name="J" unicode="J" horiz-adv-x="466" 
d="M327 703q19 0 32.5 -13.5t13.5 -32.5v-427q0 -131 -58.5 -185.5t-147.5 -54.5q-73 0 -133 34q-22 13 -22 37q0 16 10.5 28.5t27.5 12.5q10 0 18 -4q46 -22 93 -22q54 0 87.5 31t33.5 117v433q0 19 13 32.5t32 13.5z" />
    <glyph glyph-name="K" unicode="K" horiz-adv-x="670" 
d="M629 68q11 -14 11 -29q1 -18 -12 -31t-32 -13q-23 0 -36 18l-258 329l-114 -115v-187q0 -19 -13.5 -32t-32.5 -13t-32 13t-13 32v617q0 19 13 32.5t32 13.5t32.5 -13.5t13.5 -32.5v-318l342 348q14 16 34 16q18 0 30.5 -12.5t11.5 -30.5q-2 -19 -11 -28l-231 -230z" />
    <glyph glyph-name="L" unicode="L" horiz-adv-x="576" 
d="M515 91q19 0 32.5 -13.5t13.5 -32.5t-13.5 -32t-32.5 -13h-355q-26 0 -44.5 18.5t-18.5 44.5v594q0 19 13 32.5t32 13.5t32.5 -13.5t13.5 -32.5v-566h327z" />
    <glyph glyph-name="M" unicode="M" horiz-adv-x="966" 
d="M804 703q27 0 46 -19.5t19 -46.5v-597q0 -19 -13 -32t-32 -13t-32.5 13t-13.5 32v568l-231 -571q-18 -42 -64 -42t-64 42l-231 571v-568q0 -19 -13.5 -32t-32.5 -13t-32 13t-13 32v597q0 27 19 46.5t46 19.5h33q43 0 61 -42l227 -566l227 566q18 42 61 42h33z" />
    <glyph glyph-name="N" unicode="N" horiz-adv-x="803" 
d="M660 703q19 0 32.5 -13.5t13.5 -32.5v-597q0 -27 -19.5 -46t-46.5 -19h-12q-33 0 -53 27l-387 559v-541q0 -19 -13.5 -32t-32.5 -13t-32 13t-13 32v597q0 27 19 46.5t46 19.5h13q32 0 55 -30l385 -556v540q0 19 13 32.5t32 13.5z" />
    <glyph glyph-name="O" unicode="O" horiz-adv-x="811" 
d="M406 708q158 0 253 -100t98 -259q-3 -159 -98 -259t-253 -100t-253 100t-98 259q3 159 98 259t253 100zM406 75q120 0 190 77.5t70 196.5t-70 196.5t-190 77.5q-121 0 -190.5 -77.5t-69.5 -196.5t69.5 -196.5t190.5 -77.5z" />
    <glyph glyph-name="P" unicode="P" horiz-adv-x="669" 
d="M370 698q72 0 126 -19.5t83.5 -52.5t43.5 -70.5t14 -79.5t-14 -79.5t-43.5 -70.5t-83.5 -52.5t-126 -19.5h-182v-214q0 -19 -13.5 -32t-32.5 -13t-32 13t-13 32v612q0 19 13 32.5t32 13.5h228zM361 340q102 0 143.5 39t41.5 97t-41.5 97t-143.5 39h-173v-272h173z" />
    <glyph glyph-name="Q" unicode="Q" horiz-adv-x="812" 
d="M757 349q-2 -117 -56.5 -204.5t-150.5 -127.5l88 -97q12 -12 12 -29q1 -17 -12 -30t-31 -13q-19 0 -32 16l-109 130q-25 -4 -60 -4q-158 0 -253 100t-98 259q3 159 98 259t253 100t253 -100t98 -259zM406 75q120 0 190 77.5t70 196.5t-70 196.5t-190 77.5
q-121 0 -190.5 -77.5t-69.5 -196.5t69.5 -196.5t190.5 -77.5z" />
    <glyph glyph-name="R" unicode="R" horiz-adv-x="712" 
d="M641 86v-46q0 -19 -13 -32t-32 -13q-21 0 -33.5 12.5t-12.5 32.5v30q0 27 -1.5 47t-10 52t-23.5 52t-46 35.5t-74 15.5h-207v-232q0 -19 -13.5 -32t-32.5 -13t-32 13t-13 32v612q0 19 13 32.5t32 13.5h233q136 0 204 -56t68 -147q0 -60 -33.5 -109.5t-97.5 -71.5
q39 -10 66 -39t38.5 -66.5t16 -66.5t4.5 -56zM369 358q86 0 136.5 34t50.5 96q0 60 -43.5 92t-148.5 32h-176v-254h181z" />
    <glyph glyph-name="S" unicode="S" horiz-adv-x="616" 
d="M149 510q0 -40 31.5 -66t78.5 -36.5t102 -26t102 -33.5t78.5 -59.5t31.5 -103.5q0 -86 -70.5 -140.5t-185.5 -54.5q-127 0 -238 48q-12 5 -20 16.5t-8 24.5q0 17 11.5 29.5t29.5 12.5q10 0 19 -4q92 -41 197 -41q175 0 175 115q0 30 -23.5 51t-61 33t-83 23t-90.5 26
t-82.5 35.5t-61 57t-23.5 86.5q0 87 68.5 146t190.5 59q110 0 199 -33q28 -10 28 -40q0 -16 -11 -29t-29 -13q-6 0 -16 4q-78 27 -161 27q-79 0 -128.5 -30t-49.5 -84z" />
    <glyph glyph-name="T" unicode="T" horiz-adv-x="611" 
d="M554 698q18 0 30.5 -12.5t12.5 -30.5t-12.5 -30t-30.5 -12h-203v-573q0 -19 -13.5 -32t-32.5 -13t-32 13t-13 32v573h-204q-18 0 -30 12t-12 30t12 30.5t30 12.5h498z" />
    <glyph glyph-name="U" unicode="U" horiz-adv-x="758" 
d="M620 703q19 0 32.5 -13.5t13.5 -32.5v-395q0 -68 -25.5 -121.5t-68 -85.5t-92 -48.5t-101.5 -16.5t-101.5 16.5t-92 48.5t-68 85.5t-25.5 121.5v395q0 19 13 32.5t32 13.5t32.5 -13.5t13.5 -32.5v-398q0 -88 58 -137t138 -49t138 49t58 137v398q0 19 13 32.5t32 13.5z
" />
    <glyph glyph-name="V" unicode="V" horiz-adv-x="694" 
d="M112 672l235 -586l235 586q13 31 43 31q21 0 33 -12.5t12 -33.5q0 -9 -3 -17l-247 -599q-21 -46 -62 -46h-22q-41 0 -62 46l-247 599q-3 8 -3 17q0 21 12 33.5t33 12.5q30 0 43 -31z" />
    <glyph glyph-name="W" unicode="W" horiz-adv-x="1007" 
d="M504 703q18 0 32.5 -10.5t19.5 -27.5l169 -550l168 552q10 36 45 36q20 0 32.5 -12.5t11.5 -31.5q0 -7 -3 -17l-196 -602q-16 -45 -59 -45q-20 0 -36.5 12.5t-22.5 32.5l-161 510l-161 -510q-6 -20 -22.5 -32.5t-36.5 -12.5q-43 0 -59 45l-196 602q-3 10 -3 17
q-1 19 11.5 31.5t32.5 12.5q35 0 45 -36l168 -552l169 550q5 17 19.5 27.5t32.5 10.5z" />
    <glyph glyph-name="X" unicode="X" horiz-adv-x="669" 
d="M617 66q9 -10 9 -26q0 -19 -12.5 -32t-32.5 -13q-22 0 -36 19l-214 269l-211 -270q-15 -18 -35 -18q-17 0 -29.5 12.5t-12.5 29.5q0 16 9 28l231 284l-229 282q-9 12 -9 28q0 19 12.5 31.5t31.5 12.5q24 0 37 -18l211 -268l211 270q11 16 33 16q18 0 31 -12.5t13 -30.5
q0 -14 -8 -25l-231 -285z" />
    <glyph glyph-name="Y" unicode="Y" horiz-adv-x="645" 
d="M323 376l209 304q15 23 40 23q19 0 32 -13.5t12 -32.5q0 -14 -8 -27l-240 -335v-255q0 -19 -13 -32t-32 -13t-32.5 13t-13.5 32v255l-239 335q-8 13 -8 27q-1 19 12 32.5t32 13.5q25 0 40 -23z" />
    <glyph glyph-name="Z" unicode="Z" horiz-adv-x="638" 
d="M550 85q18 0 30.5 -12.5t12.5 -30.5t-12.5 -30t-30.5 -12h-445q-24 0 -41 17t-17 41q0 22 12 37l418 516h-385q-18 0 -30.5 12.5t-12.5 30.5t12.5 31t30.5 13h434q28 0 44.5 -18t16.5 -44q0 -22 -16 -40l-413 -511h392z" />
    <glyph glyph-name="bracketleft" unicode="[" horiz-adv-x="322" 
d="M258 -61q15 0 25.5 -10.5t10.5 -24.5t-10.5 -25t-25.5 -11h-127q-18 0 -31 13t-13 31v776q0 18 13 31t31 13h127q15 0 25.5 -10.5t10.5 -25.5t-10.5 -25.5t-25.5 -10.5h-92v-721h92z" />
    <glyph glyph-name="backslash" unicode="\" horiz-adv-x="443" 
d="M88 764q30 0 39 -28l265 -775q3 -9 3 -15q0 -17 -11.5 -29t-29.5 -12q-30 0 -39 28l-265 775q-3 9 -3 15q0 17 11.5 29t29.5 12z" />
    <glyph glyph-name="bracketright" unicode="]" horiz-adv-x="322" 
d="M64 -61h92v721h-92q-15 0 -25.5 10.5t-10.5 25.5t10.5 25.5t25.5 10.5h127q18 0 31 -13t13 -31v-776q0 -18 -13 -31t-31 -13h-127q-15 0 -25.5 11t-10.5 25t10.5 24.5t25.5 10.5z" />
    <glyph glyph-name="asciicircum" unicode="^" horiz-adv-x="524" 
d="M242 702h38q31 0 49 -34l105 -199q6 -12 6 -18q0 -15 -10.5 -25.5t-25.5 -10.5q-17 0 -26 11q-1 1 -6 9q-35 59 -111 181q-59 -96 -102 -166q-14 -23 -15 -24q-9 -11 -26 -11q-15 0 -25.5 10.5t-10.5 25.5q0 6 6 18l105 199q18 34 49 34z" />
    <glyph glyph-name="underscore" unicode="_" horiz-adv-x="663" 
d="M578 -81q14 0 23.5 -9.5t9.5 -23.5t-9.5 -23.5t-23.5 -9.5h-493q-13 0 -23 9.5t-10 23.5t10 23.5t23 9.5h493z" />
    <glyph glyph-name="grave" unicode="`" horiz-adv-x="246" 
d="M106 722q23 0 33 -19l51 -90q7 -11 7 -19q0 -12 -7.5 -19.5t-19.5 -7.5q-13 0 -22 11l-69 82q-10 11 -10 25q0 17 10.5 27t26.5 10z" />
    <glyph glyph-name="a" unicode="a" horiz-adv-x="555" 
d="M271 520q103 0 156 -58t53 -139v-283q0 -19 -13.5 -32t-32.5 -13t-32 13t-13 32v26q-74 -76 -188 -76q-68 0 -115.5 41t-47.5 109q0 74 58.5 118t171.5 44h121v8q0 66 -32.5 95t-101.5 29q-59 0 -133 -24q-8 -2 -13 -2q-15 0 -26 11t-11 27q0 27 26 38q85 36 173 36z
M235 70q44 0 85 21.5t69 53.5v84h-109q-151 0 -151 -79q0 -80 106 -80z" />
    <glyph glyph-name="b" unicode="b" horiz-adv-x="631" 
d="M341 520q97 0 169.5 -72t72.5 -193t-72.5 -193t-169.5 -72q-98 0 -171 76v-26q0 -19 -13.5 -32t-32.5 -13t-32 13t-13 32v649q0 19 13 32.5t32 13.5q20 0 33 -13.5t13 -32.5v-245q73 76 171 76zM328 75q74 0 119 47t45 133t-45 133t-119 47q-90 0 -158 -75v-210
q68 -75 158 -75z" />
    <glyph glyph-name="c" unicode="c" horiz-adv-x="536" 
d="M458 113q15 0 26.5 -12.5t11.5 -27.5q0 -22 -20 -35q-74 -48 -163 -48q-111 0 -189 72t-78 193t78 193t189 72q89 0 163 -48q20 -13 20 -35q0 -15 -11.5 -27.5t-26.5 -12.5q-11 0 -22 6q-62 32 -115 32q-86 0 -135 -49.5t-49 -130.5t49 -130.5t135 -49.5q53 0 115 32
q11 6 22 6z" />
    <glyph glyph-name="d" unicode="d" horiz-adv-x="631" 
d="M290 520q98 0 171 -76v245q0 19 13.5 32.5t32.5 13.5t32 -13.5t13 -32.5v-649q0 -19 -13 -32t-32 -13t-32.5 13t-13.5 32v26q-73 -76 -171 -76q-97 0 -169.5 72t-72.5 193t72.5 193t169.5 72zM303 75q90 0 158 75v210q-68 75 -158 75q-74 0 -119 -47t-45 -133t45 -133
t119 -47z" />
    <glyph glyph-name="e" unicode="e" horiz-adv-x="570" 
d="M469 110q16 0 28 -11t12 -28q0 -22 -26 -37q-77 -44 -175 -44q-122 0 -190.5 69.5t-68.5 195.5q0 111 61 188t178 77q111 0 174.5 -73.5t63.5 -178.5q0 -19 -12.5 -32t-33.5 -13h-339q8 -70 52 -109t123 -39q75 0 135 31q8 4 18 4zM288 443q-55 0 -99 -37t-48 -109h295
q-4 72 -48.5 109t-99.5 37z" />
    <glyph glyph-name="f" unicode="f" horiz-adv-x="380" 
d="M290 653q-41 0 -61.5 -19t-20.5 -69v-55h125q17 0 28 -11t11 -28t-11 -28t-28 -11h-125v-392q0 -19 -13.5 -32t-32.5 -13t-32 13t-13 32v392h-59q-16 0 -27.5 11t-11.5 28t11.5 28t27.5 11h59v58q0 87 44.5 129.5t105.5 42.5q47 0 87 -20q23 -12 23 -35q0 -15 -11 -26.5
t-26 -11.5q-8 0 -24 3t-26 3z" />
    <glyph glyph-name="g" unicode="g" horiz-adv-x="631" 
d="M506 515q19 0 32.5 -13.5t13.5 -32.5v-447q0 -126 -61 -194t-174 -68q-58 0 -117 15t-97 37q-18 11 -18 35q0 16 11.5 28.5t28.5 12.5q8 0 18 -4q76 -38 165 -38q153 0 153 163v67q-71 -76 -171 -76q-93 0 -167.5 68.5t-74.5 191.5t74.5 191.5t167.5 68.5q100 0 171 -76
v25q0 19 13 32.5t32 13.5zM461 157v206q-72 74 -152 74q-75 0 -122.5 -45.5t-47.5 -131.5t47.5 -131.5t122.5 -45.5q80 0 152 74z" />
    <glyph glyph-name="h" unicode="h" horiz-adv-x="609" 
d="M356 520q83 0 131 -56t48 -140v-284q0 -19 -13.5 -32t-32.5 -13t-32 13t-13 32v274q0 122 -110 122q-87 0 -164 -96v-300q0 -19 -13.5 -32t-32.5 -13t-32 13t-13 32v649q0 19 13 32.5t32 13.5t32.5 -13.5t13.5 -32.5v-261q84 92 186 92z" />
    <glyph glyph-name="i" unicode="i" horiz-adv-x="257" 
d="M128 515q20 0 33 -13.5t13 -32.5v-429q0 -19 -13.5 -32t-32.5 -13t-32 13t-13 32v429q0 19 13 32.5t32 13.5zM183 669v-4q0 -21 -15 -36t-36 -15h-6q-21 0 -36 15t-15 36v4q0 21 15 36t36 15h6q21 0 36 -15t15 -36z" />
    <glyph glyph-name="j" unicode="j" horiz-adv-x="257" 
d="M128 514q20 0 33 -13t13 -33v-571q0 -62 -31.5 -99.5t-99.5 -37.5q-36 0 -63 9q-26 8 -26 36q0 15 11 26.5t27 11.5q4 0 14 -1.5t16 -1.5q31 0 46 11t15 48v569q0 19 13 32.5t32 13.5zM183 669v-4q0 -21 -15 -36t-36 -15h-6q-21 0 -36 15t-15 36v4q0 21 15 36t36 15h6
q21 0 36 -15t15 -36z" />
    <glyph glyph-name="k" unicode="k" horiz-adv-x="546" 
d="M502 66q10 -13 10 -27q0 -20 -13 -32t-33 -12q-21 0 -37 19l-172 234l-87 -79v-129q0 -19 -13.5 -32t-32.5 -13t-32 13t-13 32v649q0 19 13 32.5t32 13.5t32.5 -13.5t13.5 -32.5v-409l238 220q15 13 30 13q23 0 33.5 -13t10.5 -31q0 -17 -17 -34l-144 -129z" />
    <glyph glyph-name="l" unicode="l" horiz-adv-x="265" 
d="M132 735q20 0 33 -13.5t13 -32.5v-649q0 -19 -13.5 -32t-32.5 -13t-32 13t-13 32v649q0 19 13 32.5t32 13.5z" />
    <glyph glyph-name="m" unicode="m" horiz-adv-x="919" 
d="M677 520q82 0 124.5 -58t42.5 -134v-288q0 -19 -13.5 -32t-32.5 -13t-32 13t-13 32v270q0 65 -23.5 95.5t-78.5 30.5q-86 0 -144 -96v-300q0 -19 -13.5 -32t-32.5 -13t-32 13t-13 32v270q0 65 -23 95.5t-79 30.5q-86 0 -144 -96v-300q0 -19 -13.5 -32t-32.5 -13t-32 13
t-13 32v429q0 19 13 32.5t32 13.5t32.5 -13.5t13.5 -32.5v-41q66 92 170 92q56 0 96 -30t57 -73q62 103 184 103z" />
    <glyph glyph-name="n" unicode="n" horiz-adv-x="609" 
d="M356 520q83 0 131 -56t48 -140v-284q0 -19 -13.5 -32t-32.5 -13t-32 13t-13 32v274q0 122 -110 122q-87 0 -164 -96v-300q0 -19 -13.5 -32t-32.5 -13t-32 13t-13 32v429q0 19 13 32.5t32 13.5t32.5 -13.5t13.5 -32.5v-41q84 92 186 92z" />
    <glyph glyph-name="o" unicode="o" horiz-adv-x="608" 
d="M304 520q115 0 185.5 -73t70.5 -192t-70.5 -192t-185.5 -73q-116 0 -186 73t-70 192t70 192t186 73zM304 73q66 0 115.5 45.5t49.5 137.5q0 91 -49.5 136t-115.5 45t-115.5 -45t-49.5 -136q0 -92 49.5 -137.5t115.5 -45.5z" />
    <glyph glyph-name="p" unicode="p" horiz-adv-x="631" 
d="M341 -10q-98 0 -171 76v-255q0 -19 -13 -32.5t-33 -13.5q-19 0 -32 13.5t-13 32.5v659q0 19 13 32t32 13t32.5 -13t13.5 -32v-26q73 76 171 76q97 0 169.5 -72t72.5 -193t-72.5 -193t-169.5 -72zM328 435q-90 0 -158 -75v-210q68 -75 158 -75q74 0 119 47t45 133t-45 133
t-119 47z" />
    <glyph glyph-name="q" unicode="q" horiz-adv-x="631" 
d="M290 -10q-97 0 -169.5 72t-72.5 193t72.5 193t169.5 72q98 0 171 -76v26q0 19 13.5 32t32.5 13t32 -13t13 -32v-659q0 -19 -13 -32.5t-32 -13.5t-32.5 13.5t-13.5 32.5v255q-73 -76 -171 -76zM303 435q-74 0 -119 -47t-45 -133t45 -133t119 -47q90 0 158 75v210
q-68 75 -158 75z" />
    <glyph glyph-name="r" unicode="r" horiz-adv-x="387" 
d="M332 520q19 0 31.5 -13t12.5 -32t-13 -31t-33 -12h-5q-96 0 -155 -88v-304q0 -19 -13.5 -32t-32.5 -13t-32 13t-13 32v429q0 19 13 32.5t32 13.5t32.5 -13.5t13.5 -32.5v-43q70 94 157 94h5z" />
    <glyph glyph-name="s" unicode="s" horiz-adv-x="480" 
d="M139 367q0 -28 31 -44t75.5 -25.5t88.5 -23.5t75 -48t31 -88q0 -64 -50.5 -106t-142.5 -42q-100 0 -182 45q-17 12 -17 33q0 16 11 28t28 12q9 0 18 -4q67 -30 136 -30q111 0 111 71q0 23 -31 37.5t-75 24.5t-88 24t-75 47t-31 84q0 70 50.5 114t144.5 44q77 0 145 -25
q29 -9 29 -38q0 -16 -11.5 -28t-28.5 -12q-5 0 -13 2q-58 18 -114 18q-54 0 -84.5 -19.5t-30.5 -50.5z" />
    <glyph glyph-name="t" unicode="t" horiz-adv-x="384" 
d="M328 79q14 0 25 -10.5t11 -25.5q0 -23 -23 -35q-39 -18 -83 -18q-146 0 -146 132v310h-71q-19 0 -19 19q0 9 9 17l136 133q9 9 17 9t13.5 -6t5.5 -14v-80h113q16 0 27.5 -11t11.5 -28t-11.5 -28t-27.5 -11h-113v-302q0 -21 6 -34t17.5 -18t20 -6.5t21.5 -1.5
q18 0 35.5 4.5t24.5 4.5z" />
    <glyph glyph-name="u" unicode="u" horiz-adv-x="610" 
d="M254 -10q-83 0 -131 56t-48 140v284q0 19 13.5 32t32.5 13t32 -13t13 -32v-274q0 -122 110 -122q87 0 164 96v300q0 19 13.5 32t32.5 13t32 -13t13 -32v-429q0 -19 -13 -32.5t-32 -13.5t-32.5 13.5t-13.5 32.5v41q-84 -92 -186 -92z" />
    <glyph glyph-name="v" unicode="v" horiz-adv-x="530" 
d="M459 515q19 0 32 -13.5t13 -32.5q0 -9 -5 -21l-174 -416q-17 -37 -55 -37h-10q-38 0 -55 37l-174 416q-5 12 -5 21q0 19 13 32.5t32 13.5q31 0 41 -26l153 -388l153 388q10 26 41 26z" />
    <glyph glyph-name="w" unicode="w" horiz-adv-x="785" 
d="M716 515q19 0 32 -13t13 -32q0 -8 -3 -17l-142 -416q-6 -18 -22 -30t-36 -12t-36 12t-23 31l-106 331l-106 -331q-7 -19 -23 -31t-36 -12t-36 12t-22 30l-142 416q-3 9 -3 17q0 19 13 32t32 13q33 0 41 -27l117 -385l116 376q5 16 18.5 26t30.5 10t30.5 -10t18.5 -26
l116 -376l117 385q8 27 41 27z" />
    <glyph glyph-name="x" unicode="x" horiz-adv-x="542" 
d="M324 258l156 -188q11 -12 11 -29q0 -19 -12 -32.5t-34 -13.5t-35 18l-142 170l-134 -168q-15 -20 -39 -20q-20 0 -31.5 12.5t-11.5 33.5q0 15 10 28l155 183l-155 189q-11 14 -11 29q0 20 13 32.5t32 12.5q24 0 36 -17l140 -173l139 173q12 17 35 17q20 0 33 -12.5
t13 -30.5q0 -15 -10 -28z" />
    <glyph glyph-name="y" unicode="y" horiz-adv-x="533" 
d="M509 469q0 -9 -3 -17l-273 -656q-14 -31 -42 -31q-18 0 -30.5 13t-12.5 31q0 9 3 16l65 167l-188 458q-4 10 -4 19q0 19 13 32.5t32 13.5q30 0 42 -28l154 -382l157 380q13 30 42 30q19 0 32 -13.5t13 -32.5z" />
    <glyph glyph-name="z" unicode="z" horiz-adv-x="499" 
d="M457 42q0 -18 -12.5 -30t-30.5 -12h-312q-27 0 -45 14t-18 39q0 23 16 41l288 331h-253q-18 0 -30 12t-12 30t12 30.5t30 12.5h303q26 0 42 -16t16 -41q0 -23 -14 -40l-280 -328h257q18 0 30.5 -12.5t12.5 -30.5z" />
    <glyph glyph-name="braceleft" unicode="{" horiz-adv-x="344" 
d="M281 -145h-12q-67 0 -103.5 26t-36.5 94v211q0 16 -2 25t-10.5 21.5t-28 21t-51.5 13.5q-34 6 -34 40t34 40q32 5 51.5 13.5t28 21t10.5 21.5t2 25v211q0 68 36.5 94t103.5 26h12q14 0 24.5 -10.5t10.5 -24.5t-10.5 -24.5t-24.5 -10.5h-15q-26 0 -40 -7.5t-16.5 -15
t-2.5 -19.5v-222q0 -85 -90 -118q90 -33 90 -118v-222q0 -12 2.5 -19.5t16.5 -15t40 -7.5h15q14 0 24.5 -10.5t10.5 -24.5t-10.5 -24.5t-24.5 -10.5z" />
    <glyph glyph-name="bar" unicode="|" horiz-adv-x="253" 
d="M126 741q17 0 29 -12t12 -29v-856q0 -17 -12 -28.5t-29 -11.5t-28.5 11.5t-11.5 28.5v856q0 17 11.5 29t28.5 12z" />
    <glyph glyph-name="braceright" unicode="}" horiz-adv-x="344" 
d="M75 -145h-12q-14 0 -24.5 10.5t-10.5 24.5t10.5 24.5t24.5 10.5h15q26 0 40 7.5t16.5 15t2.5 19.5v222q0 85 90 118q-90 33 -90 118v222q0 12 -2.5 19.5t-16.5 15t-40 7.5h-15q-14 0 -24.5 10.5t-10.5 24.5t10.5 24.5t24.5 10.5h12q67 0 103.5 -26t36.5 -94v-211
q0 -16 2 -25t10.5 -21.5t28 -21t51.5 -13.5q34 -6 34 -40t-34 -40q-32 -5 -51.5 -13.5t-28 -21t-10.5 -21.5t-2 -25v-211q0 -68 -36.5 -94t-103.5 -26z" />
    <glyph glyph-name="asciitilde" unicode="~" horiz-adv-x="638" 
d="M543 366q11 0 19 -8t5 -23q-12 -63 -46 -96t-81 -33q-45 0 -91 19t-86 38t-69 19q-55 0 -70 -54q-5 -19 -24 -19q-10 0 -18 7.5t-8 18.5q0 49 38.5 90.5t88.5 41.5q46 0 92 -19t86 -38t69 -19q15 0 25 2t17 9t10 12t9 17.5t10 19.5q7 15 24 15z" />
    <glyph glyph-name="uni00A0" unicode="&#xa0;" horiz-adv-x="260" 
 />
    <glyph glyph-name="exclamdown" unicode="&#xa1;" horiz-adv-x="259" 
d="M130 317q31 0 33 -29l18 -330v-99q0 -22 -14.5 -37t-36.5 -15t-37 15t-15 37v99l18 330q2 29 34 29zM130 395q-24 0 -41.5 17.5t-17.5 41.5q0 25 17.5 42.5t41.5 17.5q25 0 42.5 -17.5t17.5 -42.5q0 -24 -17.5 -41.5t-42.5 -17.5z" />
    <glyph glyph-name="cent" unicode="&#xa2;" horiz-adv-x="551" 
d="M419 620q12 0 20 -8.5t8 -20.5q0 -4 -2 -10l-27 -80q28 -10 56 -29q20 -13 20 -35q0 -15 -11.5 -27.5t-26.5 -12.5q-11 0 -22 6l-43 20l-118 -344q19 -4 46 -4q53 0 115 32q11 6 22 6q15 0 26.5 -12.5t11.5 -27.5q0 -22 -20 -35q-74 -48 -163 -48q-32 0 -66 8l-35 -103
q-6 -18 -27 -18q-12 0 -20 8.5t-8 19.5q0 7 3 13l33 97q-67 30 -107 92t-40 148q0 121 78 193t189 72q20 0 52 -4l29 85q7 19 27 19zM135 255q0 -112 85 -157l115 336q-5 1 -16 1q-86 0 -135 -49.5t-49 -130.5z" />
    <glyph glyph-name="sterling" unicode="&#xa3;" horiz-adv-x="604" 
d="M524 93q17 0 29 -11.5t12 -28.5q0 -23 -23 -36q-49 -27 -106 -27q-42 0 -99 22.5t-100 22.5q-58 0 -108 -34q-11 -8 -23 -8q-15 0 -26 10.5t-11 24.5q0 19 14 31q38 36 65 88t27 108q0 27 -6 52h-108q-22 0 -22 22q0 10 6 16.5t16 6.5h96q-2 6 -7 22l-7.5 24t-6.5 23
t-6 26t-3.5 26t-1.5 29q0 96 66.5 151t176.5 55q74 0 144 -29q30 -12 30 -40q0 -18 -12 -30t-30 -12q-7 0 -19 4q-59 19 -109 19q-85 0 -120.5 -33t-35.5 -81q0 -18 4 -40t7.5 -36t12 -41t11.5 -37h177q10 0 16.5 -6.5t6.5 -16.5t-6.5 -16t-16.5 -6h-167q4 -20 4 -46
q0 -77 -42 -143q4 0 12 0.5t13 0.5q40 0 101 -20.5t96 -20.5q32 0 63 11q12 4 16 4z" />
    <glyph glyph-name="currency" unicode="&#xa4;" horiz-adv-x="668" 
d="M103 81q-16 0 -26.5 11t-10.5 26t11 26l65 65q-45 64 -45 140t45 140l-65 65q-11 11 -11 26t10.5 26t26.5 11q13 0 26 -11l66 -65q63 45 139 45t139 -45l66 65q13 11 26 11q16 0 26.5 -11t10.5 -26t-11 -26l-65 -65q45 -64 45 -140t-45 -140l65 -65q11 -11 11 -26
t-10.5 -26t-26.5 -11q-13 0 -26 11l-66 65q-63 -45 -139 -45t-139 45l-66 -65q-13 -11 -26 -11zM334 505q-64 0 -110 -45.5t-46 -110.5t46 -110.5t110 -45.5t110 45.5t46 110.5t-46 110.5t-110 45.5z" />
    <glyph glyph-name="yen" unicode="&#xa5;" horiz-adv-x="658" 
d="M156 684l173 -303l173 303q16 28 43 28q20 0 34 -13t14 -34q0 -13 -8 -26l-168 -274h98q16 0 26.5 -11t10.5 -27t-10.5 -26.5t-26.5 -10.5h-141v-91h141q16 0 26.5 -11t10.5 -27t-10.5 -26.5t-26.5 -10.5h-141v-85q0 -19 -13.5 -32t-31.5 -13t-31.5 13t-13.5 32v85h-141
q-16 0 -26.5 10.5t-10.5 26.5t10.5 27t26.5 11h141v91h-141q-16 0 -26.5 10.5t-10.5 26.5t10.5 27t26.5 11h98l-168 274q-8 13 -8 26q0 21 14 34t34 13q27 0 43 -28z" />
    <glyph glyph-name="section" unicode="&#xa7;" horiz-adv-x="529" 
d="M380 165q65 -44 65 -120q0 -64 -50.5 -106t-142.5 -42q-118 0 -189 45q-16 10 -16 33q0 17 11.5 28.5t27.5 11.5q9 0 21 -6q56 -28 139 -28q113 0 113 70q0 27 -31 47t-75.5 35.5t-89 35.5t-75.5 56.5t-31 87.5q0 93 98 126q-64 47 -64 121q0 64 50.5 106t142.5 42
q84 0 150 -27q27 -11 27 -39q0 -16 -12.5 -28t-28.5 -12q-8 0 -15 3q-51 19 -115 19q-113 0 -113 -70q0 -23 22.5 -41t56 -30t72.5 -28.5t72.5 -35t56 -51.5t22.5 -76q0 -95 -99 -127zM320 198q75 18 75 88q0 19 -9.5 34.5t-30.5 27.5t-39.5 20t-50.5 19.5t-50 19.5
q-74 -18 -74 -88q0 -19 9.5 -34.5t30.5 -27.5t39 -19.5t50.5 -20t49.5 -19.5z" />
    <glyph glyph-name="dieresis" unicode="&#xa8;" horiz-adv-x="400" 
d="M114 677q21 0 36 -15t15 -36t-15 -36t-36 -15t-36 15t-15 36t15 36t36 15zM283 677q21 0 36 -15t15 -36t-15 -36t-36 -15t-36 15t-15 36t15 36t36 15z" />
    <glyph glyph-name="copyright" unicode="&#xa9;" horiz-adv-x="819" 
d="M410 -9q-148 0 -253.5 105t-105.5 253t105.5 253t253.5 105t253 -105t106 -253q-1 -148 -106 -253t-253 -105zM409 655q-126 0 -216 -90t-90 -216t90 -216t216 -90q127 0 217.5 90t90.5 216t-90.5 216t-217.5 90zM585 251q-52 -105 -169 -105q-86 0 -139.5 55.5
t-53.5 147.5t53.5 147.5t139.5 55.5q117 0 169 -105q3 -6 3 -13q0 -14 -9 -23t-23 -9q-19 0 -31 22q-38 67 -109 67q-60 0 -93 -41t-33 -101t33 -101t93 -41q71 0 109 67q12 22 31 22q14 0 23 -9t9 -23q0 -7 -3 -13z" />
    <glyph glyph-name="ordfeminine" unicode="&#xaa;" horiz-adv-x="485" 
d="M377 285q11 0 19.5 -8.5t8.5 -19.5t-8.5 -19.5t-19.5 -8.5h-283q-11 0 -19.5 8.5t-8.5 19.5t8.5 19.5t19.5 8.5h283zM242 553h76v2q0 45 -21 65t-64 20q-47 0 -91 -16q-6 -2 -10 -2q-13 0 -22.5 9.5t-9.5 22.5q0 21 23 30q63 24 121 24q72 0 109 -41t37 -98v-191
q0 -15 -10.5 -25.5t-25.5 -10.5t-25.5 10.5t-10.5 25.5v9q-42 -48 -121 -48q-48 0 -82 29t-34 78q0 51 40.5 79t120.5 28zM220 404q55 0 98 47v48h-68q-97 0 -97 -47q0 -48 67 -48z" />
    <glyph glyph-name="guillemotleft" unicode="&#xab;" horiz-adv-x="585" 
d="M303 59q0 -17 -11 -28t-28 -11q-19 0 -28 11l-164 181q-18 20 -18 43t18 43l164 181q9 11 28 11q17 0 28 -11t11 -28q0 -15 -9 -26l-160 -170l160 -170q9 -11 9 -26zM511 59q0 -17 -11 -28t-28 -11q-19 0 -28 11l-164 181q-18 20 -18 43t18 43l164 181q9 11 28 11
q17 0 28 -11t11 -28q0 -15 -9 -26l-160 -170l160 -170q9 -11 9 -26z" />
    <glyph glyph-name="logicalnot" unicode="&#xac;" horiz-adv-x="579" 
d="M454 383q17 0 29.5 -12.5t12.5 -29.5v-136q0 -16 -11 -26.5t-27 -10.5t-26.5 10.5t-10.5 26.5v106h-312q-15 0 -25.5 10.5t-10.5 25.5t10.5 25.5t25.5 10.5h345z" />
    <glyph glyph-name="registered" unicode="&#xae;" horiz-adv-x="819" 
d="M410 708q148 0 253.5 -105t105.5 -254t-105.5 -254t-253.5 -105t-253.5 105t-105.5 254t105.5 254t253.5 105zM409 42q127 0 217.5 90t90.5 218q0 126 -90.5 216t-217.5 90q-126 0 -216 -90t-90 -216q0 -127 90 -217.5t216 -90.5zM583 428q0 -69 -74 -97
q28 -10 48.5 -40.5t20.5 -84.5v-27q0 -14 -10 -24t-24 -10t-24 10t-10 24v18q0 16 -0.5 24.5t-4 25.5t-10.5 26.5t-22 17.5t-36 8h-109v-121q0 -14 -10 -23.5t-24 -9.5t-23.5 9.5t-9.5 23.5v324q0 19 13 32.5t32 13.5h120q79 0 118 -33t39 -87zM423 358q43 0 68.5 17.5
t25.5 50.5q0 64 -96 64h-93v-132h95z" />
    <glyph glyph-name="macron" unicode="&#xaf;" horiz-adv-x="312" 
d="M272 648q13 0 21.5 -8.5t8.5 -21.5t-8.5 -21.5t-21.5 -8.5h-234q-13 0 -21.5 8.5t-8.5 21.5t8.5 21.5t21.5 8.5h234z" />
    <glyph glyph-name="degree" unicode="&#xb0;" horiz-adv-x="378" 
d="M189 708q57 0 97 -40t40 -97q0 -56 -40 -96.5t-97 -40.5q-56 0 -96.5 40.5t-40.5 96.5q0 57 40.5 97t96.5 40zM189 486q35 0 60 25t25 60t-25 60t-60 25t-60 -25t-25 -60t25 -60t60 -25z" />
    <glyph glyph-name="plusminus" unicode="&#xb1;" horiz-adv-x="606" 
d="M505 77q17 0 28 -11.5t11 -27.5t-11 -27t-28 -11h-405q-16 0 -27 11t-11 27q0 17 11 28t27 11h405zM100 342q-16 0 -27 11t-11 27q0 17 11 28t27 11h164v158q0 17 11 28t28 11t28 -11t11 -28v-158h163q17 0 28 -11.5t11 -27.5t-11 -27t-28 -11h-163v-158q0 -16 -11 -27.5
t-28 -11.5t-28 11.5t-11 27.5v158h-164z" />
    <glyph glyph-name="twosuperior" unicode="&#xb2;" horiz-adv-x="370" 
d="M297 510q13 0 21.5 -8.5t8.5 -21.5t-8.5 -21t-21.5 -8h-220q-17 0 -28 12t-11 28q0 38 34.5 73t76.5 58t76.5 52t34.5 55q0 60 -78 60q-55 0 -95 -22q-6 -3 -13 -3q-12 0 -20 7.5t-8 20.5q0 17 14 25q52 33 130 33q58 0 95.5 -33.5t37.5 -83.5q0 -38 -29 -74.5t-64.5 -59
t-73.5 -48t-49 -41.5h190z" />
    <glyph glyph-name="threesuperior" unicode="&#xb3;" horiz-adv-x="370" 
d="M246 654q76 -23 76 -97q0 -48 -35.5 -80t-110.5 -32q-78 0 -123 25q-17 9 -17 27q0 12 9 20.5t20 8.5q3 0 11 -2q56 -17 91 -17q92 0 92 52q0 62 -112 62h-11q-13 0 -21.5 8.5t-8.5 21.5t8.5 21.5t21.5 8.5h5q105 0 105 58q0 50 -78 50q-46 0 -86 -19q-6 -3 -13 -3
q-11 0 -19.5 7.5t-8.5 19.5q0 16 19 26q56 30 112 30q69 0 102.5 -29.5t33.5 -76.5q0 -66 -62 -90z" />
    <glyph glyph-name="acute" unicode="&#xb4;" horiz-adv-x="240" 
d="M139 722q17 0 27 -10t10 -27q0 -14 -10 -25l-69 -82q-9 -11 -22 -11q-12 0 -19.5 7.5t-7.5 19.5q0 8 7 19l51 90q10 19 33 19z" />
    <glyph glyph-name="mu" unicode="&#xb5;" horiz-adv-x="604" 
d="M495 515q19 0 32 -13t13 -32v-429q0 -19 -13 -32.5t-32 -13.5t-32.5 13.5t-13.5 32.5v41q-40 -43 -80.5 -67.5t-100.5 -24.5q-53 0 -93 27v-190q0 -19 -13.5 -32t-32.5 -13t-32 13t-13 32v643q0 19 13.5 32t32.5 13t32 -13t13 -32v-274q0 -122 110 -122q87 0 164 96v300
q0 19 13.5 32t32.5 13z" />
    <glyph glyph-name="paragraph" unicode="&#xb6;" horiz-adv-x="732" 
d="M648 698q16 0 28 -12t12 -28t-11.5 -27.5t-28.5 -11.5h-46v-803q0 -16 -12 -28t-28 -12t-27.5 11.5t-11.5 28.5v803h-112v-803q0 -16 -11.5 -28t-28.5 -12q-16 0 -27.5 11.5t-11.5 28.5v368h-36q-106 0 -181.5 75t-75.5 182t75.5 182t181.5 75h352z" />
    <glyph glyph-name="periodcentered" unicode="&#xb7;" horiz-adv-x="260" 
d="M135 344q23 0 39.5 -16.5t16.5 -39.5v-6q0 -23 -16.5 -39.5t-39.5 -16.5h-10q-23 0 -39.5 16.5t-16.5 39.5v6q0 23 16.5 39.5t39.5 16.5h10z" />
    <glyph glyph-name="cedilla" unicode="&#xb8;" horiz-adv-x="307" 
d="M180 -59q34 0 55.5 -19.5t21.5 -50.5q0 -92 -111 -92q-48 0 -90 26q-11 7 -11 17q0 20 19 20q4 0 10 -3q31 -17 59 -17q57 0 57 46q0 15 -10 23t-26 8q-22 0 -44 -11q-6 -3 -10 -3q-7 0 -12.5 4.5t-5.5 11.5q0 8 4 14l64 102h42l-46 -80q16 4 34 4z" />
    <glyph glyph-name="onesuperior" unicode="&#xb9;" horiz-adv-x="370" 
d="M282 510q13 0 21.5 -8.5t8.5 -21.5t-8.5 -21t-21.5 -8h-174q-13 0 -21 8t-8 21t8 21.5t21 8.5h60v265l-45 -22q-10 -4 -15 -4q-12 0 -21 8.5t-9 21.5q0 19 19 28l72 37q10 5 20 5q19 0 31 -12.5t12 -30.5v-296h50z" />
    <glyph glyph-name="ordmasculine" unicode="&#xba;" horiz-adv-x="514" 
d="M257 708q81 0 129.5 -50.5t48.5 -133.5t-48.5 -134t-129.5 -51t-129.5 51t-48.5 134t48.5 133.5t129.5 50.5zM257 403q42 0 74 30.5t32 91.5q0 60 -32 90t-74 30t-74 -30t-32 -90q0 -61 32 -91.5t74 -30.5zM416 285q11 0 19.5 -8.5t8.5 -19.5t-8.5 -19.5t-19.5 -8.5h-318
q-11 0 -19.5 8.5t-8.5 19.5t8.5 19.5t19.5 8.5h318z" />
    <glyph glyph-name="guillemotright" unicode="&#xbb;" horiz-adv-x="585" 
d="M282 59q0 15 9 26l160 170l-160 170q-9 11 -9 26q0 17 11 28t28 11q19 0 28 -11l164 -181q18 -20 18 -43t-18 -43l-164 -181q-9 -11 -28 -11q-17 0 -28 11t-11 28zM74 59q0 15 9 26l160 170l-160 170q-9 11 -9 26q0 17 11 28t28 11q19 0 28 -11l164 -181q18 -20 18 -43
t-18 -43l-164 -181q-9 -11 -28 -11q-17 0 -28 11t-11 28z" />
    <glyph glyph-name="onequarter" unicode="&#xbc;" horiz-adv-x="940" 
d="M837 155q13 0 21.5 -8.5t8.5 -21.5t-8.5 -21t-21.5 -8h-36v-69q0 -13 -9.5 -22.5t-22.5 -9.5t-22.5 9.5t-9.5 22.5v69h-156q-17 0 -29.5 12.5t-12.5 29.5q0 15 11 29l165 208q17 21 36 21h8q18 0 30 -12.5t12 -29.5v-199h36zM610 155h127v162zM262 -24q-14 0 -24 9.5
t-10 24.5q0 8 5 18l414 682q8 14 28 14q14 0 24 -9.5t10 -24.5q0 -8 -5 -18l-414 -682q-8 -14 -28 -14zM289 369q13 0 21.5 -8.5t8.5 -21.5t-8.5 -21t-21.5 -8h-174q-13 0 -21 8t-8 21t8 21.5t21 8.5h60v265l-45 -22q-10 -4 -15 -4q-12 0 -21 8.5t-9 21.5q0 18 19 28l72 37
q10 5 20 5q19 0 31 -12.5t12 -30.5v-296h50z" />
    <glyph glyph-name="onehalf" unicode="&#xbd;" horiz-adv-x="940" 
d="M283 369q13 0 21.5 -8.5t8.5 -21.5t-8.5 -21t-21.5 -8h-174q-13 0 -21 8t-8 21t8 21.5t21 8.5h60v265l-45 -22q-10 -4 -15 -4q-12 0 -21 8.5t-9 21.5q0 18 19 28l72 37q10 5 20 5q19 0 31 -12.5t12 -30.5v-296h50zM256 -24q-14 0 -24 9.5t-10 24.5q0 8 5 18l414 682
q8 14 28 14q14 0 24 -9.5t10 -24.5q0 -8 -5 -18l-414 -682q-8 -14 -28 -14zM835 59q13 0 21.5 -8.5t8.5 -21.5t-8.5 -21t-21.5 -8h-220q-17 0 -28 12t-11 28q0 38 34.5 73t76.5 58t76.5 52t34.5 55q0 60 -78 60q-55 0 -95 -22q-6 -3 -13 -3q-12 0 -20 7.5t-8 20.5
q0 17 14 25q52 33 130 33q58 0 95.5 -33.5t37.5 -83.5q0 -38 -29 -74.5t-64.5 -59t-73.5 -48t-49 -41.5h190z" />
    <glyph glyph-name="threequarters" unicode="&#xbe;" horiz-adv-x="940" 
d="M851 155q13 0 21.5 -8.5t8.5 -21.5t-8.5 -21t-21.5 -8h-36v-69q0 -13 -9.5 -22.5t-22.5 -9.5t-22.5 9.5t-9.5 22.5v69h-156q-17 0 -29.5 12.5t-12.5 29.5q0 15 11 29l165 208q17 21 36 21h8q18 0 30 -12.5t12 -29.5v-199h36zM624 155h127v162zM276 -24q-14 0 -24 9.5
t-10 24.5q0 8 5 18l414 682q8 14 28 14q14 0 24 -9.5t10 -24.5q0 -8 -5 -18l-414 -682q-8 -14 -28 -14zM273 513q76 -23 76 -97q0 -48 -35.5 -80t-110.5 -32q-78 0 -123 25q-17 9 -17 27q0 12 9 20.5t20 8.5q3 0 11 -2q56 -17 91 -17q92 0 92 52q0 62 -112 62h-11
q-13 0 -21.5 8.5t-8.5 21.5t8.5 21.5t21.5 8.5h5q105 0 105 58q0 50 -78 50q-46 0 -86 -19q-6 -3 -13 -3q-11 0 -19.5 7.5t-8.5 19.5q0 16 19 26q56 30 112 30q69 0 102.5 -29.5t33.5 -76.5q0 -66 -62 -90z" />
    <glyph glyph-name="questiondown" unicode="&#xbf;" horiz-adv-x="488" 
d="M265 -198q-102 0 -163.5 51t-61.5 138q0 44 19.5 79t46.5 57.5t54.5 44t47 50t19.5 63.5q0 16 13 27.5t31 11.5q19 0 31.5 -11.5t12.5 -27.5q0 -47 -19 -85t-46.5 -62.5t-54.5 -45.5t-46 -45t-19 -51q0 -109 143 -109q75 0 128 33q12 8 25 8q16 0 28 -12t12 -28
q0 -23 -25 -38q-77 -48 -176 -48zM273 395q-25 0 -42.5 17.5t-17.5 41.5q0 25 17.5 42.5t42.5 17.5q24 0 41.5 -17.5t17.5 -42.5q0 -24 -17.5 -41.5t-41.5 -17.5z" />
    <glyph glyph-name="Agrave" unicode="&#xc0;" horiz-adv-x="697" 
d="M294 894q23 0 33 -19l51 -90q7 -11 7 -19q0 -12 -7.5 -19.5t-19.5 -7.5q-13 0 -22 11l-69 82q-10 11 -10 25q0 17 10.5 27t26.5 10zM667 60q5 -12 5 -20q0 -19 -12.5 -32t-32.5 -13q-31 0 -43 28l-65 156h-340l-65 -156q-12 -28 -43 -28q-20 0 -32.5 13t-12.5 32
q0 8 5 20l255 602q18 41 58 41h10q40 0 58 -41zM214 262h270l-135 325z" />
    <glyph glyph-name="Aacute" unicode="&#xc1;" horiz-adv-x="697" 
d="M403 894q17 0 27 -10t10 -27q0 -14 -10 -25l-69 -82q-9 -11 -22 -11q-12 0 -19.5 7.5t-7.5 19.5q0 8 7 19l51 90q10 19 33 19zM667 60q5 -12 5 -20q0 -19 -12.5 -32t-32.5 -13q-31 0 -43 28l-65 156h-340l-65 -156q-12 -28 -43 -28q-20 0 -32.5 13t-12.5 32q0 8 5 20
l255 602q18 41 58 41h10q40 0 58 -41zM214 262h270l-135 325z" />
    <glyph glyph-name="Acircumflex" unicode="&#xc2;" horiz-adv-x="697" 
d="M484 768q1 -11 -8 -20.5t-22 -9.5q-11 0 -18 7l-87 74l-87 -74q-7 -7 -18 -7q-13 0 -22 9.5t-8 20.5q0 11 8 19l68 70q18 20 40 20h38q22 0 40 -20l68 -70q8 -8 8 -19zM667 60q5 -12 5 -20q0 -19 -12.5 -32t-32.5 -13q-31 0 -43 28l-65 156h-340l-65 -156
q-12 -28 -43 -28q-20 0 -32.5 13t-12.5 32q0 8 5 20l255 602q18 41 58 41h10q40 0 58 -41zM214 262h270l-135 325z" />
    <glyph glyph-name="Atilde" unicode="&#xc3;" horiz-adv-x="697" 
d="M512 840q0 -35 -24 -65t-60 -30q-30 0 -79.5 24t-74.5 24q-26 0 -39 -32q-6 -18 -23 -18q-9 0 -16 6.5t-7 16.5q0 33 24 64t60 31q29 0 78 -23.5t76 -23.5t37 27q8 21 25 21q21 0 23 -22zM667 60q5 -12 5 -20q0 -19 -12.5 -32t-32.5 -13q-31 0 -43 28l-65 156h-340
l-65 -156q-12 -28 -43 -28q-20 0 -32.5 13t-12.5 32q0 8 5 20l255 602q18 41 58 41h10q40 0 58 -41zM214 262h270l-135 325z" />
    <glyph glyph-name="Adieresis" unicode="&#xc4;" horiz-adv-x="697" 
d="M667 60q5 -12 5 -20q0 -19 -12.5 -32t-32.5 -13q-31 0 -43 28l-65 156h-340l-65 -156q-12 -28 -43 -28q-20 0 -32.5 13t-12.5 32q0 8 5 20l255 602q18 41 58 41h10q40 0 58 -41zM214 262h270l-135 325zM265 849q21 0 36 -15t15 -36t-15 -36t-36 -15t-36 15t-15 36t15 36
t36 15zM434 849q21 0 36 -15t15 -36t-15 -36t-36 -15t-36 15t-15 36t15 36t36 15z" />
    <glyph glyph-name="Aring" unicode="&#xc5;" horiz-adv-x="697" 
d="M349 918q39 0 66.5 -27.5t27.5 -66.5t-27.5 -66.5t-66.5 -27.5t-66.5 27.5t-27.5 66.5t27.5 66.5t66.5 27.5zM349 775q20 0 34.5 14.5t14.5 34.5t-14.5 34.5t-34.5 14.5t-34.5 -14.5t-14.5 -34.5t14.5 -34.5t34.5 -14.5zM667 60q5 -12 5 -20q0 -19 -12.5 -32t-32.5 -13
q-31 0 -43 28l-65 156h-340l-65 -156q-12 -28 -43 -28q-20 0 -32.5 13t-12.5 32q0 8 5 20l255 602q18 41 58 41h10q40 0 58 -41zM214 262h270l-135 325z" />
    <glyph glyph-name="AE" unicode="&#xc6;" horiz-adv-x="1040" 
d="M945 85q18 0 30.5 -12.5t12.5 -30.5t-12.5 -30t-30.5 -12h-401q-19 0 -32 13t-13 32v134h-308l-102 -158q-17 -26 -41 -26q-19 0 -32.5 13t-13.5 32q0 13 10 28l399 605q17 25 46 25h488q18 0 30.5 -12.5t12.5 -30.5t-12.5 -30t-30.5 -12h-355v-221h319q18 0 30.5 -12.5
t12.5 -30.5t-12.5 -30t-30.5 -12h-319v-222h355zM499 262v351h-25l-229 -351h254z" />
    <glyph glyph-name="Ccedilla" unicode="&#xc7;" horiz-adv-x="698" 
d="M415 -59q34 0 55.5 -19.5t21.5 -50.5q0 -92 -111 -92q-48 0 -90 26q-11 7 -11 17q0 20 19 20q4 0 10 -3q31 -17 59 -17q57 0 57 46q0 15 -10 23t-26 8q-22 0 -44 -11q-6 -3 -10 -3q-7 0 -12.5 4.5t-5.5 11.5q0 8 4 14l48 77q-139 12 -226 108t-87 249q0 164 98.5 261.5
t251.5 97.5q118 0 228 -62q21 -11 22 -36q1 -16 -10.5 -28t-29.5 -12q-10 0 -18 4q-89 47 -183 47q-128 0 -198 -76t-70 -196t70 -196t198 -76q94 0 183 47q8 4 18 4q18 0 29.5 -12t10.5 -28q-1 -25 -22 -36q-106 -61 -223 -62l-30 -53q16 4 34 4z" />
    <glyph glyph-name="Egrave" unicode="&#xc8;" horiz-adv-x="638" 
d="M543 85q18 0 30.5 -12.5t12.5 -30.5t-12.5 -30t-30.5 -12h-401q-19 0 -32 13t-13 32v607q0 19 13 32.5t32 13.5h401q18 0 30.5 -12.5t12.5 -30.5t-12.5 -30t-30.5 -12h-355v-221h319q18 0 30.5 -12.5t12.5 -30.5t-12.5 -30t-30.5 -12h-319v-222h355zM289 894q23 0 33 -19
l51 -90q7 -11 7 -19q0 -12 -7.5 -19.5t-19.5 -7.5q-13 0 -22 11l-69 82q-10 11 -10 25q0 17 10.5 27t26.5 10z" />
    <glyph glyph-name="Eacute" unicode="&#xc9;" horiz-adv-x="638" 
d="M543 85q18 0 30.5 -12.5t12.5 -30.5t-12.5 -30t-30.5 -12h-401q-19 0 -32 13t-13 32v607q0 19 13 32.5t32 13.5h401q18 0 30.5 -12.5t12.5 -30.5t-12.5 -30t-30.5 -12h-355v-221h319q18 0 30.5 -12.5t12.5 -30.5t-12.5 -30t-30.5 -12h-319v-222h355zM393 894q17 0 27 -10
t10 -27q0 -14 -10 -25l-69 -82q-9 -11 -22 -11q-12 0 -19.5 7.5t-7.5 19.5q0 8 7 19l51 90q10 19 33 19z" />
    <glyph glyph-name="Ecircumflex" unicode="&#xca;" horiz-adv-x="638" 
d="M543 85q18 0 30.5 -12.5t12.5 -30.5t-12.5 -30t-30.5 -12h-401q-19 0 -32 13t-13 32v607q0 19 13 32.5t32 13.5h401q18 0 30.5 -12.5t12.5 -30.5t-12.5 -30t-30.5 -12h-355v-221h319q18 0 30.5 -12.5t12.5 -30.5t-12.5 -30t-30.5 -12h-319v-222h355zM484 768
q1 -11 -8 -20.5t-22 -9.5q-11 0 -18 7l-87 74l-87 -74q-7 -7 -18 -7q-13 0 -22 9.5t-8 20.5q0 11 8 19l68 70q18 20 40 20h38q22 0 40 -20l68 -70q8 -8 8 -19z" />
    <glyph glyph-name="Edieresis" unicode="&#xcb;" horiz-adv-x="638" 
d="M543 85q18 0 30.5 -12.5t12.5 -30.5t-12.5 -30t-30.5 -12h-401q-19 0 -32 13t-13 32v607q0 19 13 32.5t32 13.5h401q18 0 30.5 -12.5t12.5 -30.5t-12.5 -30t-30.5 -12h-355v-221h319q18 0 30.5 -12.5t12.5 -30.5t-12.5 -30t-30.5 -12h-319v-222h355zM254 849q21 0 36 -15
t15 -36t-15 -36t-36 -15t-36 15t-15 36t15 36t36 15zM423 849q21 0 36 -15t15 -36t-15 -36t-36 -15t-36 15t-15 36t15 36t36 15z" />
    <glyph glyph-name="Igrave" unicode="&#xcc;" horiz-adv-x="285" 
d="M142 703q19 0 32.5 -13.5t13.5 -32.5v-617q0 -19 -13.5 -32t-32.5 -13t-32 13t-13 32v617q0 19 13 32.5t32 13.5zM93 894q23 0 33 -19l51 -90q7 -11 7 -19q0 -12 -7.5 -19.5t-19.5 -7.5q-13 0 -22 11l-69 82q-10 11 -10 25q0 17 10.5 27t26.5 10z" />
    <glyph glyph-name="Iacute" unicode="&#xcd;" horiz-adv-x="285" 
d="M142 703q19 0 32.5 -13.5t13.5 -32.5v-617q0 -19 -13.5 -32t-32.5 -13t-32 13t-13 32v617q0 19 13 32.5t32 13.5zM192 894q16 0 26.5 -10t10.5 -27q0 -14 -10 -25l-69 -82q-9 -11 -22 -11q-12 0 -19.5 7.5t-7.5 19.5q0 8 7 19l51 90q10 19 33 19z" />
    <glyph glyph-name="Icircumflex" unicode="&#xce;" horiz-adv-x="285" 
d="M142 703q19 0 32.5 -13.5t13.5 -32.5v-617q0 -19 -13.5 -32t-32.5 -13t-32 13t-13 32v617q0 19 13 32.5t32 13.5zM277 768q1 -11 -8 -20.5t-22 -9.5q-11 0 -18 7l-87 74l-87 -74q-7 -7 -18 -7q-13 0 -22 9.5t-8 20.5q0 11 8 19l68 70q18 20 40 20h38q22 0 40 -20l68 -70
q8 -8 8 -19z" />
    <glyph glyph-name="Idieresis" unicode="&#xcf;" horiz-adv-x="285" 
d="M142 703q19 0 32.5 -13.5t13.5 -32.5v-617q0 -19 -13.5 -32t-32.5 -13t-32 13t-13 32v617q0 19 13 32.5t32 13.5zM58 849q21 0 36 -15t15 -36t-15 -36t-36 -15t-36 15t-15 36t15 36t36 15zM227 849q21 0 36 -15t15 -36t-15 -36t-36 -15t-36 15t-15 36t15 36t36 15z" />
    <glyph glyph-name="Eth" unicode="&#xd0;" horiz-adv-x="757" 
d="M350 698q86 0 155.5 -30.5t111.5 -81t64 -111.5t22 -126q0 -51 -13.5 -100.5t-42 -94.5t-69.5 -79.5t-100 -54.5t-128 -20h-201q-19 0 -32 13t-13 32v270h-54q-14 0 -23.5 9.5t-9.5 23.5t9.5 24t23.5 10h54v270q0 19 13 32.5t32 13.5h201zM339 85q124 0 199 73t75 191
t-75 191t-199 73h-144v-231h117q14 0 24 -10t10 -24t-10 -23.5t-24 -9.5h-117v-230h144z" />
    <glyph glyph-name="Ntilde" unicode="&#xd1;" horiz-adv-x="803" 
d="M660 703q19 0 32.5 -13.5t13.5 -32.5v-597q0 -27 -19.5 -46t-46.5 -19h-12q-33 0 -53 27l-387 559v-541q0 -19 -13.5 -32t-32.5 -13t-32 13t-13 32v597q0 27 19 46.5t46 19.5h13q32 0 55 -30l385 -556v540q0 19 13 32.5t32 13.5zM568 840q0 -35 -24 -65t-60 -30
q-30 0 -79.5 24t-74.5 24q-26 0 -39 -32q-6 -18 -23 -18q-9 0 -16 6.5t-7 16.5q0 33 24 64t60 31q29 0 78 -23.5t76 -23.5t37 27q8 21 25 21q21 0 23 -22z" />
    <glyph glyph-name="Ograve" unicode="&#xd2;" horiz-adv-x="811" 
d="M406 708q158 0 253 -100t98 -259q-3 -159 -98 -259t-253 -100t-253 100t-98 259q3 159 98 259t253 100zM406 75q120 0 190 77.5t70 196.5t-70 196.5t-190 77.5q-121 0 -190.5 -77.5t-69.5 -196.5t69.5 -196.5t190.5 -77.5zM359 894q23 0 33 -19l51 -90q7 -11 7 -19
q0 -12 -7.5 -19.5t-19.5 -7.5q-13 0 -22 11l-69 82q-10 11 -10 25q0 17 10.5 27t26.5 10z" />
    <glyph glyph-name="Oacute" unicode="&#xd3;" horiz-adv-x="811" 
d="M406 708q158 0 253 -100t98 -259q-3 -159 -98 -259t-253 -100t-253 100t-98 259q3 159 98 259t253 100zM406 75q120 0 190 77.5t70 196.5t-70 196.5t-190 77.5q-121 0 -190.5 -77.5t-69.5 -196.5t69.5 -196.5t190.5 -77.5zM453 894q17 0 27 -10t10 -27q0 -14 -10 -25
l-69 -82q-9 -11 -22 -11q-12 0 -19.5 7.5t-7.5 19.5q0 8 7 19l51 90q10 19 33 19z" />
    <glyph glyph-name="Ocircumflex" unicode="&#xd4;" horiz-adv-x="811" 
d="M406 708q158 0 253 -100t98 -259q-3 -159 -98 -259t-253 -100t-253 100t-98 259q3 159 98 259t253 100zM406 75q120 0 190 77.5t70 196.5t-70 196.5t-190 77.5q-121 0 -190.5 -77.5t-69.5 -196.5t69.5 -196.5t190.5 -77.5zM541 768q1 -11 -8 -20.5t-22 -9.5q-11 0 -18 7
l-87 74l-87 -74q-7 -7 -18 -7q-13 0 -22 9.5t-8 20.5q0 11 8 19l68 70q18 20 40 20h38q22 0 40 -20l68 -70q8 -8 8 -19z" />
    <glyph glyph-name="Otilde" unicode="&#xd5;" horiz-adv-x="811" 
d="M406 708q158 0 253 -100t98 -259q-3 -159 -98 -259t-253 -100t-253 100t-98 259q3 159 98 259t253 100zM406 75q120 0 190 77.5t70 196.5t-70 196.5t-190 77.5q-121 0 -190.5 -77.5t-69.5 -196.5t69.5 -196.5t190.5 -77.5zM568 840q0 -35 -24 -65t-60 -30q-30 0 -79.5 24
t-74.5 24q-26 0 -39 -32q-6 -18 -23 -18q-9 0 -16 6.5t-7 16.5q0 33 24 64t60 31q29 0 78 -23.5t76 -23.5t37 27q8 21 25 21q21 0 23 -22z" />
    <glyph glyph-name="Odieresis" unicode="&#xd6;" horiz-adv-x="811" 
d="M406 708q158 0 253 -100t98 -259q-3 -159 -98 -259t-253 -100t-253 100t-98 259q3 159 98 259t253 100zM406 75q120 0 190 77.5t70 196.5t-70 196.5t-190 77.5q-121 0 -190.5 -77.5t-69.5 -196.5t69.5 -196.5t190.5 -77.5zM322 849q21 0 36 -15t15 -36t-15 -36t-36 -15
t-36 15t-15 36t15 36t36 15zM491 849q21 0 36 -15t15 -36t-15 -36t-36 -15t-36 15t-15 36t15 36t36 15z" />
    <glyph glyph-name="multiply" unicode="&#xd7;" horiz-adv-x="563" 
d="M97 480q15 0 27 -12l157 -157l157 157q12 12 27 12q16 0 27 -11.5t11 -26.5t-12 -27l-157 -157l157 -157q12 -12 12 -27t-11 -26.5t-27 -11.5q-15 0 -27 12l-157 157l-157 -157q-12 -12 -27 -12q-16 0 -27 11.5t-11 26.5t12 27l157 157l-157 157q-12 12 -12 27t11 26.5
t27 11.5z" />
    <glyph glyph-name="Oslash" unicode="&#xd8;" horiz-adv-x="811" 
d="M406 708q106 0 188 -49l40 58q7 10 21 10q11 0 18 -7t7 -17q0 -8 -6 -17l-39 -56q117 -99 122 -281q-3 -159 -98 -259t-253 -100q-106 0 -187 47l-40 -57q-7 -10 -21 -10q-11 0 -18 7t-7 17q0 8 6 17l39 55q-120 100 -123 283q3 159 98 259t253 100zM146 349
q0 -133 83 -210l314 449q-60 35 -137 35q-121 0 -190.5 -77.5t-69.5 -196.5zM406 75q120 0 190 77.5t70 196.5q0 132 -82 209l-315 -449q59 -34 137 -34z" />
    <glyph glyph-name="Ugrave" unicode="&#xd9;" horiz-adv-x="758" 
d="M620 703q19 0 32.5 -13.5t13.5 -32.5v-395q0 -68 -25.5 -121.5t-68 -85.5t-92 -48.5t-101.5 -16.5t-101.5 16.5t-92 48.5t-68 85.5t-25.5 121.5v395q0 19 13 32.5t32 13.5t32.5 -13.5t13.5 -32.5v-398q0 -88 58 -137t138 -49t138 49t58 137v398q0 19 13 32.5t32 13.5z
M338 894q23 0 33 -19l51 -90q7 -11 7 -19q0 -12 -7.5 -19.5t-19.5 -7.5q-13 0 -22 11l-69 82q-10 11 -10 25q0 17 10.5 27t26.5 10z" />
    <glyph glyph-name="Uacute" unicode="&#xda;" horiz-adv-x="758" 
d="M620 703q19 0 32.5 -13.5t13.5 -32.5v-395q0 -68 -25.5 -121.5t-68 -85.5t-92 -48.5t-101.5 -16.5t-101.5 16.5t-92 48.5t-68 85.5t-25.5 121.5v395q0 19 13 32.5t32 13.5t32.5 -13.5t13.5 -32.5v-398q0 -88 58 -137t138 -49t138 49t58 137v398q0 19 13 32.5t32 13.5z
M420 894q16 0 26.5 -10t10.5 -27q0 -14 -10 -25l-69 -82q-9 -11 -22 -11q-12 0 -19.5 7.5t-7.5 19.5q0 8 7 19l51 90q10 19 33 19z" />
    <glyph glyph-name="Ucircumflex" unicode="&#xdb;" horiz-adv-x="758" 
d="M620 703q19 0 32.5 -13.5t13.5 -32.5v-395q0 -68 -25.5 -121.5t-68 -85.5t-92 -48.5t-101.5 -16.5t-101.5 16.5t-92 48.5t-68 85.5t-25.5 121.5v395q0 19 13 32.5t32 13.5t32.5 -13.5t13.5 -32.5v-398q0 -88 58 -137t138 -49t138 49t58 137v398q0 19 13 32.5t32 13.5z
M514 768q1 -11 -8 -20.5t-22 -9.5q-11 0 -18 7l-87 74l-87 -74q-7 -7 -18 -7q-13 0 -22 9.5t-8 20.5q0 11 8 19l68 70q18 20 40 20h38q22 0 40 -20l68 -70q8 -8 8 -19z" />
    <glyph glyph-name="Udieresis" unicode="&#xdc;" horiz-adv-x="758" 
d="M620 703q19 0 32.5 -13.5t13.5 -32.5v-395q0 -68 -25.5 -121.5t-68 -85.5t-92 -48.5t-101.5 -16.5t-101.5 16.5t-92 48.5t-68 85.5t-25.5 121.5v395q0 19 13 32.5t32 13.5t32.5 -13.5t13.5 -32.5v-398q0 -88 58 -137t138 -49t138 49t58 137v398q0 19 13 32.5t32 13.5z
M295 849q21 0 36 -15t15 -36t-15 -36t-36 -15t-36 15t-15 36t15 36t36 15zM464 849q21 0 36 -15t15 -36t-15 -36t-36 -15t-36 15t-15 36t15 36t36 15z" />
    <glyph glyph-name="Yacute" unicode="&#xdd;" horiz-adv-x="645" 
d="M323 376l209 304q15 23 40 23q19 0 32 -13.5t12 -32.5q0 -14 -8 -27l-240 -335v-255q0 -19 -13 -32t-32 -13t-32.5 13t-13.5 32v255l-239 335q-8 13 -8 27q-1 19 12 32.5t32 13.5q25 0 40 -23zM373 894q17 0 27 -10t10 -27q0 -14 -10 -25l-69 -82q-9 -11 -22 -11
q-12 0 -19.5 7.5t-7.5 19.5q0 8 7 19l51 90q10 19 33 19z" />
    <glyph glyph-name="Thorn" unicode="&#xde;" horiz-adv-x="671" 
d="M370 586q72 0 126 -19.5t83.5 -52.5t43.5 -70.5t14 -79.5t-14 -79.5t-43.5 -70.5t-83.5 -52.5t-126 -19.5h-182v-102q0 -19 -13.5 -32t-32.5 -13t-32 13t-13 32v617q0 19 13 32.5t32 13.5t32.5 -13.5t13.5 -32.5v-71h182zM361 228q102 0 143.5 39t41.5 97t-41.5 97
t-143.5 39h-173v-272h173z" />
    <glyph glyph-name="germandbls" unicode="&#xdf;" horiz-adv-x="610" 
d="M414 352q26 -6 50 -18t47.5 -32t37.5 -53t14 -75q0 -88 -56 -136t-134 -48q-62 0 -111 17q-32 11 -32 38q0 17 11 28t28 11q7 0 15 -3q30 -10 74 -10q40 0 77 26t37 88q0 57 -48.5 90.5t-123.5 33.5q-18 0 -28 10t-10 27q0 15 10.5 25t27.5 12q61 7 97 39t36 80
q0 56 -34.5 88.5t-94.5 32.5q-58 0 -96 -33.5t-38 -114.5v-434q0 -19 -13.5 -32t-32.5 -13t-32 13t-13 32v445q0 105 62 163.5t164 58.5q86 0 152.5 -50.5t66.5 -145.5q0 -125 -110 -160z" />
    <glyph glyph-name="agrave" unicode="&#xe0;" horiz-adv-x="555" 
d="M271 520q103 0 156 -58t53 -139v-283q0 -19 -13.5 -32t-32.5 -13t-32 13t-13 32v26q-74 -76 -188 -76q-68 0 -115.5 41t-47.5 109q0 74 58.5 118t171.5 44h121v8q0 66 -32.5 95t-101.5 29q-59 0 -133 -24q-8 -2 -13 -2q-15 0 -26 11t-11 27q0 27 26 38q85 36 173 36z
M235 70q44 0 85 21.5t69 53.5v84h-109q-151 0 -151 -79q0 -80 106 -80zM226 722q23 0 33 -19l51 -90q7 -11 7 -19q0 -12 -7.5 -19.5t-19.5 -7.5q-13 0 -22 11l-69 82q-10 11 -10 25q0 17 10.5 27t26.5 10z" />
    <glyph glyph-name="aacute" unicode="&#xe1;" horiz-adv-x="555" 
d="M271 520q103 0 156 -58t53 -139v-283q0 -19 -13.5 -32t-32.5 -13t-32 13t-13 32v26q-74 -76 -188 -76q-68 0 -115.5 41t-47.5 109q0 74 58.5 118t171.5 44h121v8q0 66 -32.5 95t-101.5 29q-59 0 -133 -24q-8 -2 -13 -2q-15 0 -26 11t-11 27q0 27 26 38q85 36 173 36z
M235 70q44 0 85 21.5t69 53.5v84h-109q-151 0 -151 -79q0 -80 106 -80zM315 722q17 0 27 -10t10 -27q0 -14 -10 -25l-69 -82q-9 -11 -22 -11q-12 0 -19.5 7.5t-7.5 19.5q0 8 7 19l51 90q10 19 33 19z" />
    <glyph glyph-name="acircumflex" unicode="&#xe2;" horiz-adv-x="555" 
d="M271 520q103 0 156 -58t53 -139v-283q0 -19 -13.5 -32t-32.5 -13t-32 13t-13 32v26q-74 -76 -188 -76q-68 0 -115.5 41t-47.5 109q0 74 58.5 118t171.5 44h121v8q0 66 -32.5 95t-101.5 29q-59 0 -133 -24q-8 -2 -13 -2q-15 0 -26 11t-11 27q0 27 26 38q85 36 173 36z
M235 70q44 0 85 21.5t69 53.5v84h-109q-151 0 -151 -79q0 -80 106 -80zM408 596q1 -11 -8 -20.5t-22 -9.5q-11 0 -18 7l-87 74l-87 -74q-7 -7 -18 -7q-13 0 -22 9.5t-8 20.5q0 11 8 19l68 70q18 20 40 20h38q22 0 40 -20l68 -70q8 -8 8 -19z" />
    <glyph glyph-name="atilde" unicode="&#xe3;" horiz-adv-x="555" 
d="M271 520q103 0 156 -58t53 -139v-283q0 -19 -13.5 -32t-32.5 -13t-32 13t-13 32v26q-74 -76 -188 -76q-68 0 -115.5 41t-47.5 109q0 74 58.5 118t171.5 44h121v8q0 66 -32.5 95t-101.5 29q-59 0 -133 -24q-8 -2 -13 -2q-15 0 -26 11t-11 27q0 27 26 38q85 36 173 36z
M235 70q44 0 85 21.5t69 53.5v84h-109q-151 0 -151 -79q0 -80 106 -80zM432 668q0 -35 -24 -65t-60 -30q-30 0 -79.5 24t-74.5 24q-26 0 -39 -32q-6 -18 -23 -18q-9 0 -16 6.5t-7 16.5q0 33 24 64t60 31q29 0 78 -23.5t76 -23.5t37 27q8 21 25 21q21 0 23 -22z" />
    <glyph glyph-name="adieresis" unicode="&#xe4;" horiz-adv-x="555" 
d="M271 520q103 0 156 -58t53 -139v-283q0 -19 -13.5 -32t-32.5 -13t-32 13t-13 32v26q-74 -76 -188 -76q-68 0 -115.5 41t-47.5 109q0 74 58.5 118t171.5 44h121v8q0 66 -32.5 95t-101.5 29q-59 0 -133 -24q-8 -2 -13 -2q-15 0 -26 11t-11 27q0 27 26 38q85 36 173 36z
M235 70q44 0 85 21.5t69 53.5v84h-109q-151 0 -151 -79q0 -80 106 -80zM190 677q21 0 36 -15t15 -36t-15 -36t-36 -15t-36 15t-15 36t15 36t36 15zM359 677q21 0 36 -15t15 -36t-15 -36t-36 -15t-36 15t-15 36t15 36t36 15z" />
    <glyph glyph-name="aring" unicode="&#xe5;" horiz-adv-x="555" 
d="M271 520q103 0 156 -58t53 -139v-283q0 -19 -13.5 -32t-32.5 -13t-32 13t-13 32v26q-74 -76 -188 -76q-68 0 -115.5 41t-47.5 109q0 74 58.5 118t171.5 44h121v8q0 66 -32.5 95t-101.5 29q-59 0 -133 -24q-8 -2 -13 -2q-15 0 -26 11t-11 27q0 27 26 38q85 36 173 36z
M235 70q44 0 85 21.5t69 53.5v84h-109q-151 0 -151 -79q0 -80 106 -80zM269 739q39 0 66.5 -27.5t27.5 -66.5t-27.5 -66.5t-66.5 -27.5t-66.5 27.5t-27.5 66.5t27.5 66.5t66.5 27.5zM269 596q20 0 34.5 14.5t14.5 34.5t-14.5 34.5t-34.5 14.5t-34.5 -14.5t-14.5 -34.5
t14.5 -34.5t34.5 -14.5z" />
    <glyph glyph-name="ae" unicode="&#xe6;" horiz-adv-x="904" 
d="M861 269q0 -17 -12 -30t-32 -13h-344q17 -151 177 -151q75 0 135 31q8 4 18 4q16 0 28 -11t12 -28q0 -22 -26 -37q-77 -44 -175 -44q-136 0 -203 87q-57 -87 -206 -87q-83 0 -139.5 41t-56.5 109q0 73 58.5 116t171.5 43h121v11q0 66 -32.5 95t-101.5 29q-59 0 -133 -24
q-8 -2 -13 -2q-15 0 -26 11t-11 27q0 27 26 38q85 36 173 36q120 0 171 -84q63 84 181 84q110 0 174.5 -70.5t64.5 -180.5zM388 169v57h-109q-151 0 -151 -76q0 -34 32.5 -57t90.5 -23q57 0 97 22t40 77zM473 299h298q-4 72 -49 108t-100 36t-100 -36t-49 -108z" />
    <glyph glyph-name="ccedilla" unicode="&#xe7;" horiz-adv-x="537" 
d="M319 -59q34 0 55.5 -19.5t21.5 -50.5q0 -92 -111 -92q-48 0 -90 26q-11 7 -11 17q0 20 19 20q4 0 10 -3q31 -17 59 -17q57 0 57 46q0 15 -10 23t-26 8q-22 0 -44 -11q-6 -3 -10 -3q-7 0 -12.5 4.5t-5.5 11.5q0 8 4 14l48 78q-98 13 -162.5 82.5t-64.5 179.5q0 121 78 193
t189 72q89 0 163 -48q20 -13 20 -35q0 -15 -11.5 -27.5t-26.5 -12.5q-11 0 -22 6q-62 32 -115 32q-86 0 -135 -49.5t-49 -130.5t49 -130.5t135 -49.5q53 0 115 32q11 6 22 6q15 0 26.5 -12.5t11.5 -27.5q0 -22 -20 -35q-72 -47 -161 -48l-30 -53q16 4 34 4z" />
    <glyph glyph-name="egrave" unicode="&#xe8;" horiz-adv-x="570" 
d="M469 110q16 0 28 -11t12 -28q0 -22 -26 -37q-77 -44 -175 -44q-122 0 -190.5 69.5t-68.5 195.5q0 111 61 188t178 77q111 0 174.5 -73.5t63.5 -178.5q0 -19 -12.5 -32t-33.5 -13h-339q8 -70 52 -109t123 -39q75 0 135 31q8 4 18 4zM288 443q-55 0 -99 -37t-48 -109h295
q-4 72 -48.5 109t-99.5 37zM246 722q23 0 33 -19l51 -90q7 -11 7 -19q0 -12 -7.5 -19.5t-19.5 -7.5q-13 0 -22 11l-69 82q-10 11 -10 25q0 17 10.5 27t26.5 10z" />
    <glyph glyph-name="eacute" unicode="&#xe9;" horiz-adv-x="570" 
d="M469 110q16 0 28 -11t12 -28q0 -22 -26 -37q-77 -44 -175 -44q-122 0 -190.5 69.5t-68.5 195.5q0 111 61 188t178 77q111 0 174.5 -73.5t63.5 -178.5q0 -19 -12.5 -32t-33.5 -13h-339q8 -70 52 -109t123 -39q75 0 135 31q8 4 18 4zM288 443q-55 0 -99 -37t-48 -109h295
q-4 72 -48.5 109t-99.5 37zM329 722q17 0 27 -10t10 -27q0 -14 -10 -25l-69 -82q-9 -11 -22 -11q-12 0 -19.5 7.5t-7.5 19.5q0 8 7 19l51 90q10 19 33 19z" />
    <glyph glyph-name="ecircumflex" unicode="&#xea;" horiz-adv-x="570" 
d="M469 110q16 0 28 -11t12 -28q0 -22 -26 -37q-77 -44 -175 -44q-122 0 -190.5 69.5t-68.5 195.5q0 111 61 188t178 77q111 0 174.5 -73.5t63.5 -178.5q0 -19 -12.5 -32t-33.5 -13h-339q8 -70 52 -109t123 -39q75 0 135 31q8 4 18 4zM288 443q-55 0 -99 -37t-48 -109h295
q-4 72 -48.5 109t-99.5 37zM422 596q1 -11 -8 -20.5t-22 -9.5q-11 0 -18 7l-87 74l-87 -74q-7 -7 -18 -7q-13 0 -22 9.5t-8 20.5q0 11 8 19l68 70q18 20 40 20h38q22 0 40 -20l68 -70q8 -8 8 -19z" />
    <glyph glyph-name="edieresis" unicode="&#xeb;" horiz-adv-x="570" 
d="M469 110q16 0 28 -11t12 -28q0 -22 -26 -37q-77 -44 -175 -44q-122 0 -190.5 69.5t-68.5 195.5q0 111 61 188t178 77q111 0 174.5 -73.5t63.5 -178.5q0 -19 -12.5 -32t-33.5 -13h-339q8 -70 52 -109t123 -39q75 0 135 31q8 4 18 4zM288 443q-55 0 -99 -37t-48 -109h295
q-4 72 -48.5 109t-99.5 37zM203 677q21 0 36 -15t15 -36t-15 -36t-36 -15t-36 15t-15 36t15 36t36 15zM372 677q21 0 36 -15t15 -36t-15 -36t-36 -15t-36 15t-15 36t15 36t36 15z" />
    <glyph glyph-name="igrave" unicode="&#xec;" horiz-adv-x="257" 
d="M128 515q20 0 33 -13.5t13 -32.5v-429q0 -19 -13.5 -32t-32.5 -13t-32 13t-13 32v429q0 19 13 32.5t32 13.5zM79 722q23 0 33 -19l51 -90q7 -11 7 -19q0 -12 -7.5 -19.5t-19.5 -7.5q-13 0 -22 11l-69 82q-10 11 -10 25q0 17 10 27t27 10z" />
    <glyph glyph-name="iacute" unicode="&#xed;" horiz-adv-x="257" 
d="M128 515q20 0 33 -13.5t13 -32.5v-429q0 -19 -13.5 -32t-32.5 -13t-32 13t-13 32v429q0 19 13 32.5t32 13.5zM178 722q16 0 26.5 -10t10.5 -27q0 -14 -10 -25l-69 -82q-9 -11 -22 -11q-12 0 -19.5 7.5t-7.5 19.5q0 8 7 19l51 90q10 19 33 19z" />
    <glyph glyph-name="icircumflex" unicode="&#xee;" horiz-adv-x="257" 
d="M128 515q20 0 33 -13.5t13 -32.5v-429q0 -19 -13.5 -32t-32.5 -13t-32 13t-13 32v429q0 19 13 32.5t32 13.5zM263 596q1 -11 -8 -20.5t-22 -9.5q-11 0 -18 7l-87 74l-87 -74q-7 -7 -18 -7q-13 0 -22 9.5t-8 20.5q0 11 8 19l68 70q18 20 40 20h38q22 0 40 -20l68 -70
q8 -8 8 -19z" />
    <glyph glyph-name="idieresis" unicode="&#xef;" horiz-adv-x="257" 
d="M128 515q20 0 33 -13.5t13 -32.5v-429q0 -19 -13.5 -32t-32.5 -13t-32 13t-13 32v429q0 19 13 32.5t32 13.5zM44 677q21 0 36 -15t15 -36t-15 -36t-36 -15t-36 15t-15 36t15 36t36 15zM213 677q21 0 36 -15t15 -36t-15 -36t-36 -15t-36 15t-15 36t15 36t36 15z" />
    <glyph glyph-name="eth" unicode="&#xf0;" horiz-adv-x="599" 
d="M362 637q184 -166 184 -363q0 -125 -61 -204.5t-188 -79.5q-112 0 -180 71t-68 187q0 106 63 181.5t171 75.5q59 0 113 -28q-41 61 -107 117l-84 -49q-10 -6 -17 -6q-10 0 -17.5 7.5t-7.5 17.5q0 15 15 23l68 40q-50 34 -76 48q-20 10 -20 35q0 18 12.5 30t29.5 12
q12 0 22 -6q60 -37 108 -75l68 41q8 5 15 5q11 0 18 -7.5t7 -17.5q0 -14 -12 -22zM297 70q64 0 112.5 45.5t48.5 136.5q0 90 -48.5 134.5t-112.5 44.5t-112 -44.5t-48 -134.5q0 -91 48 -136.5t112 -45.5z" />
    <glyph glyph-name="ntilde" unicode="&#xf1;" horiz-adv-x="609" 
d="M356 520q83 0 131 -56t48 -140v-284q0 -19 -13.5 -32t-32.5 -13t-32 13t-13 32v274q0 122 -110 122q-87 0 -164 -96v-300q0 -19 -13.5 -32t-32.5 -13t-32 13t-13 32v429q0 19 13 32.5t32 13.5t32.5 -13.5t13.5 -32.5v-41q84 92 186 92zM472 668q0 -35 -24 -65t-60 -30
q-30 0 -79.5 24t-74.5 24q-26 0 -39 -32q-6 -18 -23 -18q-9 0 -16 6.5t-7 16.5q0 33 24 64t60 31q29 0 78 -23.5t76 -23.5t37 27q8 21 25 21q21 0 23 -22z" />
    <glyph glyph-name="ograve" unicode="&#xf2;" horiz-adv-x="608" 
d="M304 520q115 0 185.5 -73t70.5 -192t-70.5 -192t-185.5 -73q-116 0 -186 73t-70 192t70 192t186 73zM304 73q66 0 115.5 45.5t49.5 137.5q0 91 -49.5 136t-115.5 45t-115.5 -45t-49.5 -136q0 -92 49.5 -137.5t115.5 -45.5zM255 722q23 0 33 -19l51 -90q7 -11 7 -19
q0 -12 -7.5 -19.5t-19.5 -7.5q-13 0 -22 11l-69 82q-10 11 -10 25q0 17 10.5 27t26.5 10z" />
    <glyph glyph-name="oacute" unicode="&#xf3;" horiz-adv-x="608" 
d="M304 520q115 0 185.5 -73t70.5 -192t-70.5 -192t-185.5 -73q-116 0 -186 73t-70 192t70 192t186 73zM304 73q66 0 115.5 45.5t49.5 137.5q0 91 -49.5 136t-115.5 45t-115.5 -45t-49.5 -136q0 -92 49.5 -137.5t115.5 -45.5zM353 722q17 0 27 -10t10 -27q0 -14 -10 -25
l-69 -82q-9 -11 -22 -11q-12 0 -19.5 7.5t-7.5 19.5q0 8 7 19l51 90q10 19 33 19z" />
    <glyph glyph-name="ocircumflex" unicode="&#xf4;" horiz-adv-x="608" 
d="M304 520q115 0 185.5 -73t70.5 -192t-70.5 -192t-185.5 -73q-116 0 -186 73t-70 192t70 192t186 73zM304 73q66 0 115.5 45.5t49.5 137.5q0 91 -49.5 136t-115.5 45t-115.5 -45t-49.5 -136q0 -92 49.5 -137.5t115.5 -45.5zM439 596q1 -11 -8 -20.5t-22 -9.5q-11 0 -18 7
l-87 74l-87 -74q-7 -7 -18 -7q-13 0 -22 9.5t-8 20.5q0 11 8 19l68 70q18 20 40 20h38q22 0 40 -20l68 -70q8 -8 8 -19z" />
    <glyph glyph-name="otilde" unicode="&#xf5;" horiz-adv-x="608" 
d="M304 520q115 0 185.5 -73t70.5 -192t-70.5 -192t-185.5 -73q-116 0 -186 73t-70 192t70 192t186 73zM304 73q66 0 115.5 45.5t49.5 137.5q0 91 -49.5 136t-115.5 45t-115.5 -45t-49.5 -136q0 -92 49.5 -137.5t115.5 -45.5zM467 668q0 -35 -24 -65t-60 -30q-30 0 -79.5 24
t-74.5 24q-26 0 -39 -32q-6 -18 -23 -18q-9 0 -16 6.5t-7 16.5q0 33 24 64t60 31q30 0 79 -23.5t75 -23.5q27 0 37 27q8 21 25 21q21 0 23 -22z" />
    <glyph glyph-name="odieresis" unicode="&#xf6;" horiz-adv-x="608" 
d="M304 520q115 0 185.5 -73t70.5 -192t-70.5 -192t-185.5 -73q-116 0 -186 73t-70 192t70 192t186 73zM304 73q66 0 115.5 45.5t49.5 137.5q0 91 -49.5 136t-115.5 45t-115.5 -45t-49.5 -136q0 -92 49.5 -137.5t115.5 -45.5zM220 677q21 0 36 -15t15 -36t-15 -36t-36 -15
t-36 15t-15 36t15 36t36 15zM389 677q21 0 36 -15t15 -36t-15 -36t-36 -15t-36 15t-15 36t15 36t36 15z" />
    <glyph glyph-name="divide" unicode="&#xf7;" horiz-adv-x="712" 
d="M356 197q21 0 36 -15t15 -36t-15 -36t-36 -15t-36 15t-15 36t15 36t36 15zM356 465q-21 0 -36 15t-15 36t15 36t36 15t36 -15t15 -36t-15 -36t-36 -15zM598 372q17 0 29 -12t12 -29t-12 -28.5t-29 -11.5h-485q-17 0 -28.5 11.5t-11.5 28.5t11.5 29t28.5 12h485z" />
    <glyph glyph-name="oslash" unicode="&#xf8;" horiz-adv-x="608" 
d="M304 520q71 0 132 -32l29 41q7 10 21 10q11 0 18 -7t7 -17q0 -8 -6 -17l-28 -40q83 -72 83 -203q0 -119 -70.5 -192t-185.5 -73q-75 0 -133 32l-30 -43q-7 -10 -21 -10q-11 0 -18 7t-7 17q0 8 6 17l29 41q-82 74 -82 204q0 119 70 192t186 73zM139 256q0 -83 43 -131
l204 291q-39 21 -82 21q-66 0 -115.5 -45t-49.5 -136zM304 73q66 0 115.5 45.5t49.5 137.5q0 79 -43 129l-204 -291q36 -21 82 -21z" />
    <glyph glyph-name="ugrave" unicode="&#xf9;" horiz-adv-x="610" 
d="M254 -10q-83 0 -131 56t-48 140v284q0 19 13.5 32t32.5 13t32 -13t13 -32v-274q0 -122 110 -122q87 0 164 96v300q0 19 13.5 32t32.5 13t32 -13t13 -32v-429q0 -19 -13 -32.5t-32 -13.5t-32.5 13.5t-13.5 32.5v41q-84 -92 -186 -92zM254 722q23 0 33 -19l51 -90
q7 -11 7 -19q0 -12 -7.5 -19.5t-19.5 -7.5q-13 0 -22 11l-69 82q-10 11 -10 25q0 17 10.5 27t26.5 10z" />
    <glyph glyph-name="uacute" unicode="&#xfa;" horiz-adv-x="610" 
d="M254 -10q-83 0 -131 56t-48 140v284q0 19 13.5 32t32.5 13t32 -13t13 -32v-274q0 -122 110 -122q87 0 164 96v300q0 19 13.5 32t32.5 13t32 -13t13 -32v-429q0 -19 -13 -32.5t-32 -13.5t-32.5 13.5t-13.5 32.5v41q-84 -92 -186 -92zM352 722q16 0 26.5 -10t10.5 -27
q0 -14 -10 -25l-69 -82q-9 -11 -22 -11q-12 0 -19.5 7.5t-7.5 19.5q0 8 7 19l51 90q10 19 33 19z" />
    <glyph glyph-name="ucircumflex" unicode="&#xfb;" horiz-adv-x="610" 
d="M254 -10q-83 0 -131 56t-48 140v284q0 19 13.5 32t32.5 13t32 -13t13 -32v-274q0 -122 110 -122q87 0 164 96v300q0 19 13.5 32t32.5 13t32 -13t13 -32v-429q0 -19 -13 -32.5t-32 -13.5t-32.5 13.5t-13.5 32.5v41q-84 -92 -186 -92zM438 596q1 -11 -8 -20.5t-22 -9.5
q-11 0 -18 7l-87 74l-87 -74q-7 -7 -18 -7q-13 0 -22 9.5t-8 20.5q0 11 8 19l68 70q18 20 40 20h38q22 0 40 -20l68 -70q8 -8 8 -19z" />
    <glyph glyph-name="udieresis" unicode="&#xfc;" horiz-adv-x="610" 
d="M254 -10q-83 0 -131 56t-48 140v284q0 19 13.5 32t32.5 13t32 -13t13 -32v-274q0 -122 110 -122q87 0 164 96v300q0 19 13.5 32t32.5 13t32 -13t13 -32v-429q0 -19 -13 -32.5t-32 -13.5t-32.5 13.5t-13.5 32.5v41q-84 -92 -186 -92zM219 677q21 0 36 -15t15 -36t-15 -36
t-36 -15t-36 15t-15 36t15 36t36 15zM388 677q21 0 36 -15t15 -36t-15 -36t-36 -15t-36 15t-15 36t15 36t36 15z" />
    <glyph glyph-name="yacute" unicode="&#xfd;" horiz-adv-x="533" 
d="M509 469q0 -9 -3 -17l-273 -656q-14 -31 -42 -31q-18 0 -30.5 13t-12.5 31q0 9 3 16l65 167l-188 458q-4 10 -4 19q0 19 13 32.5t32 13.5q30 0 42 -28l154 -382l157 380q13 30 42 30q19 0 32 -13.5t13 -32.5zM315 722q17 0 27 -10t10 -27q0 -14 -10 -25l-69 -82
q-9 -11 -22 -11q-12 0 -19.5 7.5t-7.5 19.5q0 8 7 19l51 90q10 19 33 19z" />
    <glyph glyph-name="thorn" unicode="&#xfe;" horiz-adv-x="631" 
d="M341 520q97 0 169.5 -72t72.5 -193t-72.5 -193t-169.5 -72q-98 0 -171 76v-255q0 -19 -13 -32.5t-33 -13.5q-19 0 -32 13.5t-13 32.5v878q0 19 13 32.5t32 13.5q20 0 33 -13.5t13 -32.5v-245q73 76 171 76zM328 75q74 0 119 47t45 133t-45 133t-119 47q-90 0 -158 -75
v-210q68 -75 158 -75z" />
    <glyph glyph-name="ydieresis" unicode="&#xff;" horiz-adv-x="533" 
d="M509 469q0 -9 -3 -17l-273 -656q-14 -31 -42 -31q-18 0 -30.5 13t-12.5 31q0 9 3 16l65 167l-188 458q-4 10 -4 19q0 19 13 32.5t32 13.5q30 0 42 -28l154 -382l157 380q13 30 42 30q19 0 32 -13.5t13 -32.5zM181 677q21 0 36 -15t15 -36t-15 -36t-36 -15t-36 15t-15 36
t15 36t36 15zM350 677q21 0 36 -15t15 -36t-15 -36t-36 -15t-36 15t-15 36t15 36t36 15z" />
    <glyph glyph-name="longs" unicode="&#x17f;" horiz-adv-x="287" 
d="M290 653q-41 0 -61.5 -19t-20.5 -69v-525q0 -19 -13.5 -32t-32.5 -13t-32 13t-13 32v392h-59q-16 0 -27.5 11t-11.5 28t11.5 28t27.5 11h59v58q0 87 44.5 129.5t105.5 42.5q47 0 87 -20q23 -12 23 -35q0 -15 -11 -26.5t-26 -11.5q-8 0 -24 3t-26 3z" />
    <glyph glyph-name="florin" unicode="&#x192;" horiz-adv-x="403" 
d="M421 733q23 -11 23 -36q0 -17 -11.5 -28.5t-28.5 -11.5q-4 0 -21 3t-30 3q-41 0 -64 -19t-30 -69l-21 -148h117q13 0 22 -9.5t9 -21.5q0 -13 -9 -22t-22 -9h-125l-50 -353q-8 -59 -37.5 -98.5t-63.5 -54.5t-73 -15h-18q-17 0 -29 12t-12 29t12 29.5t29 12.5h7q41 0 64 19
t30 69l49 350h-78q-13 0 -22 9t-9 22t9 22t22 9h87l21 151q8 59 37.5 98.5t64 54.5t73.5 15q51 0 78 -13z" />
    <glyph glyph-name="AEacute" unicode="&#x1fc;" horiz-adv-x="1040" 
d="M945 85q18 0 30.5 -12.5t12.5 -30.5t-12.5 -30t-30.5 -12h-401q-19 0 -32 13t-13 32v134h-308l-102 -158q-17 -26 -41 -26q-19 0 -32.5 13t-13.5 32q0 13 10 28l399 605q17 25 46 25h488q18 0 30.5 -12.5t12.5 -30.5t-12.5 -30t-30.5 -12h-355v-221h319q18 0 30.5 -12.5
t12.5 -30.5t-12.5 -30t-30.5 -12h-319v-222h355zM499 262v351h-25l-229 -351h254zM577 894q17 0 27 -10t10 -27q0 -14 -10 -25l-69 -82q-9 -11 -22 -11q-12 0 -19.5 7.5t-7.5 19.5q0 8 7 19l51 90q10 19 33 19z" />
    <glyph glyph-name="aeacute" unicode="&#x1fd;" horiz-adv-x="904" 
d="M861 269q0 -17 -12 -30t-32 -13h-344q17 -151 177 -151q75 0 135 31q8 4 18 4q16 0 28 -11t12 -28q0 -22 -26 -37q-77 -44 -175 -44q-136 0 -203 87q-57 -87 -206 -87q-83 0 -139.5 41t-56.5 109q0 73 58.5 116t171.5 43h121v11q0 66 -32.5 95t-101.5 29q-59 0 -133 -24
q-8 -2 -13 -2q-15 0 -26 11t-11 27q0 27 26 38q85 36 173 36q120 0 171 -84q63 84 181 84q110 0 174.5 -70.5t64.5 -180.5zM388 169v57h-109q-151 0 -151 -76q0 -34 32.5 -57t90.5 -23q57 0 97 22t40 77zM473 299h298q-4 72 -49 108t-100 36t-100 -36t-49 -108zM493 722
q17 0 27 -10t10 -27q0 -14 -10 -25l-69 -82q-9 -11 -22 -11q-12 0 -19.5 7.5t-7.5 19.5q0 8 7 19l51 90q10 19 33 19z" />
    <glyph glyph-name="Oslashacute" unicode="&#x1fe;" horiz-adv-x="811" 
d="M406 708q106 0 188 -49l40 58q7 10 21 10q11 0 18 -7t7 -17q0 -8 -6 -17l-39 -56q117 -99 122 -281q-3 -159 -98 -259t-253 -100q-106 0 -187 47l-40 -57q-7 -10 -21 -10q-11 0 -18 7t-7 17q0 8 6 17l39 55q-120 100 -123 283q3 159 98 259t253 100zM146 349
q0 -133 83 -210l314 449q-60 35 -137 35q-121 0 -190.5 -77.5t-69.5 -196.5zM406 75q120 0 190 77.5t70 196.5q0 132 -82 209l-315 -449q59 -34 137 -34zM453 894q17 0 27 -10t10 -27q0 -14 -10 -25l-69 -82q-9 -11 -22 -11q-12 0 -19.5 7.5t-7.5 19.5q0 8 7 19l51 90
q10 19 33 19z" />
    <glyph glyph-name="oslashacute" unicode="&#x1ff;" horiz-adv-x="608" 
d="M304 520q71 0 132 -32l29 41q7 10 21 10q11 0 18 -7t7 -17q0 -8 -6 -17l-28 -40q83 -72 83 -203q0 -119 -70.5 -192t-185.5 -73q-75 0 -133 32l-30 -43q-7 -10 -21 -10q-11 0 -18 7t-7 17q0 8 6 17l29 41q-82 74 -82 204q0 119 70 192t186 73zM139 256q0 -83 43 -131
l204 291q-39 21 -82 21q-66 0 -115.5 -45t-49.5 -136zM304 73q66 0 115.5 45.5t49.5 137.5q0 79 -43 129l-204 -291q36 -21 82 -21zM353 722q17 0 27 -10t10 -27q0 -14 -10 -25l-69 -82q-9 -11 -22 -11q-12 0 -19.5 7.5t-7.5 19.5q0 8 7 19l51 90q10 19 33 19z" />
    <glyph glyph-name="Scommaaccent" unicode="&#x218;" horiz-adv-x="617" 
d="M318 -47q20 0 35 -15t15 -36v-5v-47q0 -87 -74 -131q-5 -5 -15 -5q-11 0 -18.5 8t-7.5 19q0 14 14 23q45 26 45 83h-3q-21 0 -36 14.5t-15 35.5v5q0 21 15 36t36 15h9zM149 510q0 -40 31.5 -66t78.5 -36.5t102 -26t102 -33.5t78.5 -59.5t31.5 -103.5q0 -86 -70.5 -140.5
t-185.5 -54.5q-127 0 -238 48q-12 5 -20 16.5t-8 24.5q0 17 11.5 29.5t29.5 12.5q10 0 19 -4q92 -41 197 -41q175 0 175 115q0 30 -23.5 51t-61 33t-83 23t-90.5 26t-82.5 35.5t-61 57t-23.5 86.5q0 87 68.5 146t190.5 59q110 0 199 -33q28 -10 28 -40q0 -16 -11 -29
t-29 -13q-6 0 -16 4q-78 27 -161 27q-79 0 -128.5 -30t-49.5 -84z" />
    <glyph glyph-name="scommaaccent" unicode="&#x219;" horiz-adv-x="480" 
d="M250 -47q20 0 35 -15t15 -36v-5v-47q0 -87 -74 -131q-5 -5 -15 -5q-11 0 -18.5 8t-7.5 19q0 14 14 23q45 26 45 83h-3q-21 0 -36 14.5t-15 35.5v5q0 21 15 36t36 15h9zM139 367q0 -28 31 -44t75.5 -25.5t88.5 -23.5t75 -48t31 -88q0 -64 -50.5 -106t-142.5 -42
q-100 0 -182 45q-17 12 -17 33q0 16 11 28t28 12q9 0 18 -4q67 -30 136 -30q111 0 111 71q0 23 -31 37.5t-75 24.5t-88 24t-75 47t-31 84q0 70 50.5 114t144.5 44q77 0 145 -25q29 -9 29 -38q0 -16 -11.5 -28t-28.5 -12q-5 0 -13 2q-58 18 -114 18q-54 0 -84.5 -19.5
t-30.5 -50.5z" />
    <glyph glyph-name="uni021A" unicode="&#x21a;" horiz-adv-x="609" 
d="M309 -47q20 0 35 -15t15 -36v-5v-47q0 -87 -74 -131q-5 -5 -15 -5q-11 0 -18.5 8t-7.5 19q0 14 14 23q45 26 45 83h-3q-21 0 -36 14.5t-15 35.5v5q0 21 15 36t36 15h9zM553 698q18 0 30.5 -12.5t12.5 -30.5t-12.5 -30t-30.5 -12h-203v-573q0 -19 -13.5 -32t-32.5 -13
t-32 13t-13 32v573h-204q-18 0 -30 12t-12 30t12 30.5t30 12.5h498z" />
    <glyph glyph-name="uni021B" unicode="&#x21b;" horiz-adv-x="383" 
d="M196 -47q20 0 35 -15t15 -36v-5v-47q0 -87 -74 -131q-5 -5 -15 -5q-11 0 -18.5 8t-7.5 19q0 14 14 23q45 26 45 83h-3q-21 0 -36 14.5t-15 35.5v5q0 21 15 36t36 15h9zM327 79q14 0 25 -10.5t11 -25.5q0 -23 -23 -35q-39 -18 -83 -18q-146 0 -146 132v310h-71
q-19 0 -19 19q0 9 9 17l136 133q9 9 17 9t13.5 -6t5.5 -14v-80h113q17 0 28 -11t11 -28t-11 -28t-28 -11h-113v-302q0 -21 6 -34t17.5 -18t20 -6.5t21.5 -1.5q18 0 35.5 4.5t24.5 4.5z" />
    <glyph glyph-name="dotlessj" unicode="&#x237;" horiz-adv-x="257" 
d="M128 514q20 0 33 -13t13 -33v-571q0 -62 -31.5 -99.5t-99.5 -37.5q-36 0 -63 9q-26 8 -26 36q0 15 11 26.5t27 11.5q4 0 14 -1.5t16 -1.5q31 0 46 11t15 48v569q0 19 13 32.5t32 13.5z" />
    <glyph glyph-name="circumflex" unicode="&#x2c6;" horiz-adv-x="409" 
d="M338 596q1 -11 -8 -20.5t-22 -9.5q-11 0 -18 7l-87 74l-87 -74q-7 -7 -18 -7q-13 0 -22 9.5t-8 20.5q0 11 8 19l68 70q18 20 40 20h38q22 0 40 -20l68 -70q8 -8 8 -19z" />
    <glyph glyph-name="caron" unicode="&#x2c7;" horiz-adv-x="391" 
d="M338 675q0 -11 -8 -19l-68 -70q-18 -20 -40 -20h-38q-22 0 -40 20l-68 70q-8 8 -8 19q-1 11 8 20.5t22 9.5q11 0 18 -7l87 -74l87 74q7 7 18 7q13 0 22 -9.5t8 -20.5z" />
    <glyph glyph-name="breve" unicode="&#x2d8;" horiz-adv-x="385" 
d="M276 683q9 19 28 19q14 0 22.5 -9t8.5 -22q0 -8 -3 -14q-17 -38 -54.5 -59.5t-85.5 -21.5t-85.5 21.5t-54.5 59.5q-3 6 -3 14q0 13 8.5 22t22.5 9q19 0 28 -19q23 -49 84 -49t84 49z" />
    <glyph glyph-name="dotaccent" unicode="&#x2d9;" horiz-adv-x="228" 
d="M114 677q21 0 36 -15t15 -36t-15 -36t-36 -15t-36 15t-15 36t15 36t36 15z" />
    <glyph glyph-name="ring" unicode="&#x2da;" horiz-adv-x="270" 
d="M137 739q39 0 66.5 -27.5t27.5 -66.5t-27.5 -66.5t-66.5 -27.5t-66.5 27.5t-27.5 66.5t27.5 66.5t66.5 27.5zM137 596q20 0 34.5 14.5t14.5 34.5t-14.5 34.5t-34.5 14.5t-34.5 -14.5t-14.5 -34.5t14.5 -34.5t34.5 -14.5z" />
    <glyph glyph-name="ogonek" unicode="&#x2db;" horiz-adv-x="351" 
d="M237 -139q22 0 22 -22q0 -10 -11 -18q-36 -24 -86 -24q-38 0 -65.5 23t-27.5 61q0 75 107 119h78q-46 -17 -79.5 -42t-32.5 -58q0 -47 51 -47q15 0 35 6q6 2 9 2z" />
    <glyph glyph-name="tilde" unicode="&#x2dc;" horiz-adv-x="432" 
d="M378 668q0 -35 -24 -65t-60 -30q-30 0 -79.5 24t-74.5 24q-26 0 -39 -32q-6 -18 -23 -18q-9 0 -16 6.5t-7 16.5q0 33 24 64t60 31q29 0 78 -23.5t76 -23.5t37 27q8 21 25 21q21 0 23 -22z" />
    <glyph glyph-name="hungarumlaut" unicode="&#x2dd;" horiz-adv-x="399" 
d="M139 722q17 0 27 -10t10 -27q0 -14 -10 -25l-69 -82q-9 -11 -22 -11q-12 0 -19.5 7.5t-7.5 19.5q0 8 7 19l51 90q10 19 33 19zM293 722q17 0 27 -10t10 -27q0 -14 -10 -25l-69 -82q-9 -11 -22 -11q-12 0 -19.5 7.5t-7.5 19.5q0 8 7 19l51 90q10 19 33 19z" />
    <glyph glyph-name="uni03A9" unicode="&#x3a9;" horiz-adv-x="790" 
d="M395 617q-111 0 -177.5 -76t-66.5 -183q0 -185 151 -272q23 -14 23 -40q0 -19 -14 -32.5t-33 -13.5h-185q-17 0 -28 11t-11 28t11 28t28 11h101q-125 103 -125 291q0 83 38 159.5t114.5 128t173.5 51.5t173.5 -51.5t114.5 -128t38 -159.5q0 -188 -125 -291h101
q17 0 28 -11t11 -28t-11 -28t-28 -11h-185q-19 0 -33 13.5t-14 32.5q0 26 23 40q151 87 151 272q0 107 -66.5 183t-177.5 76z" />
    <glyph glyph-name="pi" unicode="&#x3c0;" horiz-adv-x="634" 
d="M576 510q16 0 28 -12t12 -28t-11.5 -27.5t-28.5 -11.5h-60v-393q0 -18 -12.5 -30.5t-30.5 -12.5t-30.5 12.5t-12.5 30.5v393h-176q-6 -212 -60 -404q-4 -14 -15.5 -23t-26.5 -9q-18 0 -31 12.5t-13 30.5q0 9 5 21q22 57 34 125t15 116.5t6 130.5h-22q-46 0 -76 -9
q-12 -4 -17 -4q-14 0 -25.5 11t-11.5 25q0 22 21 33q46 23 109 23h430z" />
    <glyph glyph-name="endash" unicode="&#x2013;" horiz-adv-x="684" 
d="M574 321q17 0 29 -12t12 -29t-12 -28.5t-29 -11.5h-465q-17 0 -28.5 11.5t-11.5 28.5t11.5 29t28.5 12h465z" />
    <glyph glyph-name="emdash" unicode="&#x2014;" horiz-adv-x="891" 
d="M781 321q17 0 29 -12t12 -29t-12 -28.5t-29 -11.5h-672q-17 0 -28.5 11.5t-11.5 28.5t11.5 29t28.5 12h672z" />
    <glyph glyph-name="quoteleft" unicode="&#x2018;" horiz-adv-x="255" 
d="M132 477h-10q-23 0 -39.5 16.5t-16.5 39.5v6v53q0 96 82 146q8 5 17 5q12 0 20.5 -9t8.5 -21q0 -16 -15 -25q-25 -15 -38 -35t-13 -58h4q23 0 39.5 -16.5t16.5 -39.5v-6q0 -23 -16.5 -39.5t-39.5 -16.5z" />
    <glyph glyph-name="quoteright" unicode="&#x2019;" horiz-adv-x="238" 
d="M135 743q23 0 39.5 -16.5t16.5 -39.5v-6v-53q0 -96 -82 -146q-7 -5 -17 -5q-12 0 -20.5 9t-8.5 21q0 16 15 25q25 15 38 35t13 58h-4q-23 0 -39.5 16.5t-16.5 39.5v6q0 23 16.5 39.5t39.5 16.5h10z" />
    <glyph glyph-name="quotesinglbase" unicode="&#x201a;" horiz-adv-x="260" 
d="M135 115q23 0 39.5 -16.5t16.5 -39.5v-6v-53q0 -96 -82 -146q-7 -5 -17 -5q-12 0 -20.5 9t-8.5 21q0 16 15 25q25 15 38 35t13 58h-4q-23 0 -39.5 16.5t-16.5 39.5v6q0 23 16.5 39.5t39.5 16.5h10z" />
    <glyph glyph-name="quotedblleft" unicode="&#x201c;" horiz-adv-x="437" 
d="M313 477h-10q-23 0 -39.5 16.5t-16.5 39.5v6v53q0 96 82 146q7 5 17 5q12 0 20.5 -9t8.5 -21q0 -16 -15 -25q-25 -15 -38 -35t-13 -58h4q23 0 39.5 -16.5t16.5 -39.5v-6q0 -23 -16.5 -39.5t-39.5 -16.5zM132 477h-10q-23 0 -39.5 16.5t-16.5 39.5v6v53q0 96 82 146
q8 5 17 5q12 0 20.5 -9t8.5 -21q0 -16 -15 -25q-25 -15 -38 -35t-13 -58h4q23 0 39.5 -16.5t16.5 -39.5v-6q0 -23 -16.5 -39.5t-39.5 -16.5z" />
    <glyph glyph-name="quotedblright" unicode="&#x201d;" horiz-adv-x="420" 
d="M135 743q23 0 39.5 -16.5t16.5 -39.5v-6v-53q0 -96 -82 -146q-7 -5 -17 -5q-12 0 -20.5 9t-8.5 21q0 16 15 25q25 15 38 35t13 58h-4q-23 0 -39.5 16.5t-16.5 39.5v6q0 23 16.5 39.5t39.5 16.5h10zM316 743q23 0 39.5 -16.5t16.5 -39.5v-6v-53q0 -96 -82 -146
q-8 -5 -17 -5q-12 0 -20.5 9t-8.5 21q0 16 15 25q25 15 38 35t13 58h-4q-23 0 -39.5 16.5t-16.5 39.5v6q0 23 16.5 39.5t39.5 16.5h10z" />
    <glyph glyph-name="quotedblbase" unicode="&#x201e;" horiz-adv-x="442" 
d="M135 115q23 0 39.5 -16.5t16.5 -39.5v-6v-53q0 -96 -82 -146q-7 -5 -17 -5q-12 0 -20.5 9t-8.5 21q0 16 15 25q25 15 38 35t13 58h-4q-23 0 -39.5 16.5t-16.5 39.5v6q0 23 16.5 39.5t39.5 16.5h10zM316 115q23 0 39.5 -16.5t16.5 -39.5v-6v-53q0 -96 -82 -146
q-8 -5 -17 -5q-12 0 -20.5 9t-8.5 21q0 16 15 25q25 15 38 35t13 58h-4q-23 0 -39.5 16.5t-16.5 39.5v6q0 23 16.5 39.5t39.5 16.5h10z" />
    <glyph glyph-name="dagger" unicode="&#x2020;" horiz-adv-x="505" 
d="M417 485q54 0 54 -31t-54 -31h-39q-23 0 -85 10q-8 1 -13.5 -4t-3.5 -13q9 -56 9 -85l-11 -370v-11l-1.5 -15t-2.5 -13t-6.5 -11.5t-10.5 -3.5t-10.5 3.5t-6.5 11.5t-2.5 13l-1.5 15v11l-11 370l9 85q2 8 -3.5 13t-13.5 4q-62 -10 -85 -10h-39q-54 0 -54 31t54 31h39
q29 0 85 -9q8 -2 13.5 3.5t3.5 13.5q-10 62 -10 85v41q0 19 8 36.5t25 17.5t25 -17.5t8 -36.5v-41q0 -23 -10 -85q-2 -8 3.5 -13.5t13.5 -3.5q56 9 85 9h39z" />
    <glyph glyph-name="daggerdbl" unicode="&#x2021;" horiz-adv-x="531" 
d="M430 156q54 0 54 -31t-54 -31h-39q-29 0 -85 9q-8 1 -13 -4t-4 -13q10 -62 10 -85v-41q0 -19 -8 -36.5t-25 -17.5t-25 17.5t-8 36.5v41q0 23 10 85q1 8 -4 13t-13 4q-56 -9 -85 -9h-39q-54 0 -54 31t54 31h39q23 0 85 -10q8 -2 13 3.5t4 13.5q-9 98 -9 127l9 127
q1 8 -4 13.5t-13 3.5q-62 -10 -85 -10h-39q-54 0 -54 31t54 31h39q29 0 85 -9q8 -1 13 4t4 13q-10 62 -10 85v41q0 19 8 36.5t25 17.5t25 -17.5t8 -36.5v-41q0 -23 -10 -85q-1 -8 4 -13t13 -4q56 9 85 9h39q54 0 54 -31t-54 -31h-39q-23 0 -85 10q-8 2 -13 -3.5t-4 -13.5
q9 -98 9 -127l-9 -127q-1 -8 4 -13.5t13 -3.5q62 10 85 10h39z" />
    <glyph glyph-name="bullet" unicode="&#x2022;" horiz-adv-x="377" 
d="M189 526q55 0 93.5 -39t38.5 -94t-38.5 -94t-93.5 -39t-94 39t-39 94t39 94t94 39z" />
    <glyph glyph-name="ellipsis" unicode="&#x2026;" horiz-adv-x="968" 
d="M135 115q23 0 39.5 -16.5t16.5 -39.5v-6q0 -23 -16.5 -39.5t-39.5 -16.5h-10q-23 0 -39.5 16.5t-16.5 39.5v6q0 23 16.5 39.5t39.5 16.5h10zM490 115q23 0 39.5 -16.5t16.5 -39.5v-6q0 -23 -16.5 -39.5t-39.5 -16.5h-10q-23 0 -39.5 16.5t-16.5 39.5v6q0 23 16.5 39.5
t39.5 16.5h10zM842 115q23 0 39.5 -16.5t16.5 -39.5v-6q0 -23 -16.5 -39.5t-39.5 -16.5h-10q-23 0 -39.5 16.5t-16.5 39.5v6q0 23 16.5 39.5t39.5 16.5h10z" />
    <glyph glyph-name="guilsinglleft" unicode="&#x2039;" horiz-adv-x="377" 
d="M303 59q0 -17 -11 -28t-28 -11q-19 0 -28 11l-164 181q-18 20 -18 43t18 43l164 181q9 11 28 11q17 0 28 -11t11 -28q0 -15 -9 -26l-160 -170l160 -170q9 -11 9 -26z" />
    <glyph glyph-name="guilsinglright" unicode="&#x203a;" horiz-adv-x="377" 
d="M74 59q0 15 9 26l160 170l-160 170q-9 11 -9 26q0 17 11 28t28 11q19 0 28 -11l164 -181q18 -20 18 -43t-18 -43l-164 -181q-9 -11 -28 -11q-17 0 -28 11t-11 28z" />
    <glyph glyph-name="fraction" unicode="&#x2044;" horiz-adv-x="200" 
d="M-106 -24q-14 0 -24 9.5t-10 24.5q0 8 5 18l414 682q8 14 28 14q14 0 24 -9.5t10 -24.5q0 -8 -5 -18l-414 -682q-8 -14 -28 -14z" />
    <glyph glyph-name="Euro" unicode="&#x20ac;" horiz-adv-x="682" 
d="M596 98q17 0 29 -12t12 -28q0 -24 -23 -36q-66 -32 -146 -32q-116 0 -200.5 66t-118.5 173h-71q-15 0 -25.5 10.5t-10.5 25.5t10.5 26t25.5 11h55q-4 30 -4 47q0 15 4 47h-55q-15 0 -25.5 10.5t-10.5 25.5t10.5 25.5t25.5 10.5h71q34 108 118.5 174t200.5 66
q80 0 146 -32q23 -12 23 -36q0 -16 -12 -28t-29 -12q-6 0 -19 5q-46 17 -109 17q-74 0 -134.5 -41.5t-89.5 -112.5h287q15 0 25.5 -10.5t10.5 -25.5q0 -14 -10.5 -25t-25.5 -11h-308q-3 -22 -3 -47t3 -47h258q15 0 26 -11t11 -26q0 -16 -10.5 -26t-26.5 -10h-237
q29 -70 89.5 -111.5t134.5 -41.5q63 0 109 17q13 5 19 5z" />
    <glyph glyph-name="trademark" unicode="&#x2122;" horiz-adv-x="953" 
d="M532 674l116 -287l116 287q10 26 39 26h17q18 0 30 -12.5t12 -29.5v-309q0 -13 -9 -22.5t-23 -9.5t-23 9.5t-9 22.5v262l-111 -269q-10 -25 -39 -25t-39 25l-111 269v-262q0 -13 -9 -22.5t-23 -9.5t-23 9.5t-9 22.5v309q0 17 12 29.5t30 12.5h17q29 0 39 -26zM350 698
q12 0 20.5 -8.5t8.5 -20.5t-8.5 -20.5t-20.5 -8.5h-101v-292q0 -13 -9 -22t-23 -9q-13 0 -22 8.5t-9 22.5v292h-100q-12 0 -20.5 8.5t-8.5 20.5t8.5 20.5t20.5 8.5h264z" />
    <glyph glyph-name="Omega" unicode="&#x2126;" horiz-adv-x="790" 
d="M395 617q-111 0 -177.5 -76t-66.5 -183q0 -185 151 -272q23 -14 23 -40q0 -19 -14 -32.5t-33 -13.5h-185q-17 0 -28 11t-11 28t11 28t28 11h101q-125 103 -125 291q0 83 38 159.5t114.5 128t173.5 51.5t173.5 -51.5t114.5 -128t38 -159.5q0 -188 -125 -291h101
q17 0 28 -11t11 -28t-11 -28t-28 -11h-185q-19 0 -33 13.5t-14 32.5q0 26 23 40q151 87 151 272q0 107 -66.5 183t-177.5 76z" />
    <glyph glyph-name="partialdiff" unicode="&#x2202;" horiz-adv-x="685" 
d="M354 754q128 0 198 -94t70 -227q0 -201 -87.5 -322t-251.5 -121q-63 0 -111.5 20t-75.5 53t-40.5 69.5t-13.5 75.5q0 106 77 176t201 70q61 0 116.5 -26t93.5 -65q4 31 4 63q0 47 -10.5 88.5t-32.5 77t-60.5 56t-89.5 20.5q-57 0 -103 -13q-6 -2 -14 -2q-17 0 -28.5 11.5
t-11.5 28.5q0 27 26 37q64 24 144 24zM290 70q53 0 95 20t68 53.5t40.5 67t23.5 71.5q-32 43 -82 70t-108 27q-86 0 -140 -43.5t-54 -118.5q0 -61 41 -104t116 -43z" />
    <glyph glyph-name="Delta" unicode="&#x2206;" horiz-adv-x="721" 
d="M431 646l215 -540q8 -20 8 -36q0 -30 -21.5 -50t-52.5 -20h-438q-31 0 -52.5 20t-21.5 50q0 16 8 36l215 540q20 52 70 52t70 -52zM146 71h430l-215 539z" />
    <glyph glyph-name="product" unicode="&#x220f;" horiz-adv-x="741" 
d="M662 698q18 0 30.5 -12.5t12.5 -30.5t-12.5 -30.5t-30.5 -12.5h-74v-684q0 -18 -12.5 -30.5t-30.5 -12.5t-30.5 12.5t-12.5 30.5v684h-263v-684q0 -18 -12.5 -30.5t-30.5 -12.5t-30.5 12.5t-12.5 30.5v684h-74q-18 0 -30.5 12.5t-12.5 30.5t12.5 30.5t30.5 12.5h583z" />
    <glyph glyph-name="summation" unicode="&#x2211;" horiz-adv-x="631" 
d="M546 -103h-442q-26 0 -44.5 19t-18.5 45q0 24 19 46l272 291l-272 291q-19 22 -19 46q0 26 18.5 45t44.5 19h442q18 0 31 -13t13 -31t-13 -30.5t-31 -12.5h-393l251 -265q19 -21 19 -49t-19 -49l-251 -265h393q18 0 31 -12.5t13 -30.5t-13 -31t-31 -13z" />
    <glyph glyph-name="minus" unicode="&#x2212;" horiz-adv-x="712" 
d="M598 371q17 0 29 -12t12 -29t-12 -28.5t-29 -11.5h-485q-17 0 -28.5 11.5t-11.5 28.5t11.5 29t28.5 12h485z" />
    <glyph glyph-name="radical" unicode="&#x221a;" horiz-adv-x="620" 
d="M600 698q11 0 19 -8t8 -19t-8 -18.5t-19 -7.5h-89l-195 -611q-4 -15 -17 -24.5t-29 -9.5h-4q-33 0 -47 37l-114 311l-56 -22q-9 -3 -13 -3q-12 0 -20.5 9t-8.5 21q0 18 24 28l82 33q10 4 17 4q25 0 36 -29l100 -283l184 552q13 40 47 40h103z" />
    <glyph glyph-name="infinity" unicode="&#x221e;" horiz-adv-x="963" 
d="M705 457q54 0 93.5 -19.5t60 -51.5t30 -64.5t9.5 -66.5t-9.5 -66.5t-30 -64.5t-60 -51.5t-93.5 -19.5q-72 0 -123 37.5t-99 102.5h-3q-46 -63 -98 -101.5t-124 -38.5q-54 0 -93.5 19.5t-60 51.5t-30 64.5t-9.5 66.5t9.5 66.5t30 64.5t60 51.5t93.5 19.5q72 0 123.5 -38.5
t98.5 -101.5h3q23 30 41.5 50.5t46.5 43.5t62 34.5t72 11.5zM695 130q59 0 91 37t32 88t-32 88t-91 37q-27 0 -52 -10t-41.5 -20.5t-36 -32.5t-26.5 -31t-22 -31q21 -28 30 -39.5t34 -37t53 -37t61 -11.5zM268 130q33 0 61.5 12t52.5 36t35 38t29 39q-17 24 -29 39
t-35.5 38.5t-52 35.5t-61.5 12q-59 0 -91 -37t-32 -88t32 -88t91 -37z" />
    <glyph glyph-name="integral" unicode="&#x222b;" horiz-adv-x="371" 
d="M336 791q34 -6 34 -36q0 -14 -11 -25t-25 -11q-2 0 -8 0.5t-12 0.5q-29 0 -44 -11t-18 -46l-47 -681q-4 -58 -36.5 -93.5t-96.5 -35.5q-16 0 -42 4q-13 2 -21 12.5t-8 23.5q0 15 10 25.5t26 10.5q2 0 8.5 -0.5t12.5 -0.5q29 0 44 10.5t17 45.5l48 681q3 59 35.5 94
t97.5 35q20 0 36 -3z" />
    <glyph glyph-name="approxequal" unicode="&#x2248;" horiz-adv-x="675" 
d="M595 417q0 -5 -2 -11q-32 -95 -124 -95q-53 0 -139 37.5t-121 37.5q-54 0 -73 -51q-7 -18 -25 -18q-11 0 -19.5 8.5t-8.5 19.5q0 5 3 11q41 95 123 95q53 0 139 -37.5t121 -37.5q53 0 71 49q7 20 27 20q11 0 19.5 -8.5t8.5 -19.5zM595 232q0 -5 -2 -11q-32 -95 -124 -95
q-53 0 -139 37.5t-121 37.5q-54 0 -73 -51q-7 -18 -25 -18q-11 0 -19.5 8.5t-8.5 19.5q0 5 3 11q41 95 123 95q53 0 139 -37.5t121 -37.5q53 0 71 49q7 20 27 20q11 0 19.5 -8.5t8.5 -19.5z" />
    <glyph glyph-name="notequal" unicode="&#x2260;" horiz-adv-x="688" 
d="M98 404q-16 0 -27.5 11t-11.5 28t11.5 28t27.5 11h304l86 136q8 13 25 13q12 0 21 -8t9 -18q0 -12 -5 -21l-65 -102h113q16 0 27.5 -11t11.5 -28t-11.5 -28t-27.5 -11h-163l-92 -146h255q16 0 27.5 -11t11.5 -28t-11.5 -28t-27.5 -11h-305l-88 -140q-8 -13 -25 -13
q-12 0 -21 8t-9 18q0 12 5 21l67 106h-112q-16 0 -27.5 11t-11.5 28t11.5 28t27.5 11h162l92 146h-254z" />
    <glyph glyph-name="lessequal" unicode="&#x2264;" horiz-adv-x="630" 
d="M513 113q-9 0 -16 3l-399 179q-36 16 -36 52v8q0 36 36 52l399 179q7 3 16 3q17 0 28.5 -11.5t11.5 -28.5q0 -26 -27 -38l-360 -160l360 -160q27 -12 27 -38q0 -17 -11.5 -28.5t-28.5 -11.5zM517 73q15 0 26 -11t11 -26t-11 -25.5t-26 -10.5h-423q-15 0 -25.5 10.5
t-10.5 25.5t10.5 26t25.5 11h423z" />
    <glyph glyph-name="greaterequal" unicode="&#x2265;" horiz-adv-x="630" 
d="M117 113q-17 0 -28.5 11.5t-11.5 28.5q0 26 27 38l360 160l-360 160q-27 12 -27 38q0 17 11.5 28.5t28.5 11.5q9 0 16 -3l399 -179q36 -16 36 -52v-8q0 -36 -36 -52l-399 -179q-7 -3 -16 -3zM113 73h423q15 0 25.5 -11t10.5 -26t-10.5 -25.5t-25.5 -10.5h-423
q-15 0 -26 10.5t-11 25.5t11 26t26 11z" />
    <glyph glyph-name="lozenge" unicode="&#x25ca;" horiz-adv-x="626" 
d="M317 -105h-8q-35 0 -51 28l-210 345q-8 14 -8 31t8 31l210 345q16 28 51 28h8q35 0 51 -28l210 -345q8 -14 8 -31t-8 -31l-210 -345q-16 -28 -51 -28zM313 -29l195 328l-195 328l-195 -328z" />
    <glyph glyph-name="s_t" unicode="&#xfb06;" horiz-adv-x="842" 
d="M786 79q14 0 25 -10.5t11 -25.5q0 -23 -23 -35q-39 -18 -83 -18q-146 0 -146 132v310h-61q-17 0 -28 11t-11 28t11 28t28 11h61v84q0 47 -26.5 80t-86.5 33q-48 0 -80 -30t-32 -83q0 -68 56 -103q20 -12 20 -34q0 -16 -11.5 -28t-28.5 -12q-5 0 -13 2q-58 18 -114 18
q-54 0 -84.5 -19.5t-30.5 -50.5q0 -28 31 -44t75.5 -25.5t88.5 -23.5t75 -48t31 -88q0 -64 -50.5 -106t-142.5 -42q-100 0 -182 45q-17 12 -17 33q0 16 11 28t28 12q9 0 18 -4q67 -30 136 -30q111 0 111 71q0 23 -31 37.5t-75 24.5t-88 24t-75 47t-31 84q0 70 50.5 114
t144.5 44q34 0 76 -7q-26 37 -26 88q0 77 48.5 125t133.5 48t133.5 -55.5t48.5 -134.5v-74h113q16 0 27.5 -11t11.5 -28t-11.5 -28t-27.5 -11h-113v-302q0 -21 6 -34t17.5 -18t20 -6.5t21.5 -1.5q18 0 35.5 4.5t24.5 4.5z" />
    </font>
</defs>
</svg>
